<svg xmlns="http://www.w3.org/2000/svg" xmlns:xlink="http://www.w3.org/1999/xlink" width="400" height="494.238" viewBox="0 0 400 494.238">
  <defs>
    <filter id="Rectángulo_419553" x="-9" y="-6" width="418" height="512.238" filterUnits="userSpaceOnUse">
      <feOffset dy="3" input="SourceAlpha"/>
      <feGaussianBlur stdDeviation="3" result="blur"/>
      <feFlood flood-opacity="0.161"/>
      <feComposite operator="in" in2="blur"/>
      <feComposite in="SourceGraphic"/>
    </filter>
    <clipPath id="clip-path">
      <g transform="matrix(1, 0, 0, 1, 0, 0)" filter="url(#Rectángulo_419553)">
        <rect id="Rectángulo_419553-2" data-name="Rectángulo 419553" width="400" height="494.238" rx="8" transform="translate(1020 10634.73)" fill="#aed3eb"/>
      </g>
    </clipPath>
    <filter id="Rectángulo_419389" x="16.5" y="-6" width="359" height="512.238" filterUnits="userSpaceOnUse">
      <feOffset dy="3" input="SourceAlpha"/>
      <feGaussianBlur stdDeviation="3" result="blur-2"/>
      <feFlood flood-opacity="0.161"/>
      <feComposite operator="in" in2="blur-2"/>
      <feComposite in="SourceGraphic"/>
    </filter>
    <clipPath id="clip-path-2">
      <rect id="Rectángulo_419552" data-name="Rectángulo 419552" width="400" height="376.959" fill="none"/>
    </clipPath>
  </defs>
  <g id="Enmascarar_grupo_1098809" data-name="Enmascarar grupo 1098809" transform="translate(-1020 -10634.73)" clip-path="url(#clip-path)">
    <g transform="matrix(1, 0, 0, 1, 1020, 10634.73)" filter="url(#Rectángulo_419389)">
      <rect id="Rectángulo_419389-2" data-name="Rectángulo 419389" width="341" height="494.238" rx="8" transform="translate(25.5)" fill="#aed3eb"/>
    </g>
    <g id="Grupo_1210320" data-name="Grupo 1210320" transform="translate(1020 10693.37)">
      <g id="Grupo_1210319" data-name="Grupo 1210319" clip-path="url(#clip-path-2)">
        <path id="Trazado_1050156" data-name="Trazado 1050156" d="M1668.941,1.586A12.621,12.621,0,0,1,1674.37.073c3.375-.123,6.96-.286,10.04,1.338,1.364.678,1.962,2.239,3.2,3.053a46.777,46.777,0,0,1,6,2.2,71.924,71.924,0,0,1,10.762,15.65,77.249,77.249,0,0,1,7.471,22.518,26.333,26.333,0,0,1,.471,6.569c-2.006-.15-3.995-.422-5.988-.682-2.578-.33-5.178-.075-7.761-.3a67.055,67.055,0,0,0-12.944-.546c-8.342-.031-16.683-.123-25.025.048-3.942.4-7.911.4-11.861.678-5.975.128-11.87,1.3-17.832,1.584.854-2.86.594-5.935,1.518-8.8,2.728-11.958,8.9-23.411,18.536-31.18A36.625,36.625,0,0,1,1656.71,8.2a41.363,41.363,0,0,1,8.852-3.643c1.645-.26,2.033-2.235,3.379-2.974m-1.905,5.434a10.693,10.693,0,0,0-.268,2.147c-.044,6.894.352,13.775.167,20.665a40.55,40.55,0,0,0-.128,4.853c.361,4.62.066,9.257.2,13.885.5,0,1,0,1.509.013.04-13.819.066-27.643-.009-41.463-.493-.035-.981-.07-1.469-.1m17.225.541c.224,8.166.216,16.336.158,24.5-.009,4.241.136,8.487-.057,12.728a13.067,13.067,0,0,0,.317,3.6,32.2,32.2,0,0,0,.18-4.919c-.079-12.174.066-24.352-.009-36.526-.145.154-.444.458-.589.612m.867,2.921c.066,12.68-.1,25.364.092,38.04.55,0,1.1,0,1.659-.009q.092-20.584,0-41.168l-1.249-.722c-.81,1.126-.436,2.569-.5,3.859" transform="translate(-1471.447 0)" fill="#f3af2a"/>
        <path id="Trazado_1050157" data-name="Trazado 1050157" d="M2272.286,68.109c9.657,4.158,17.181,12.284,22.126,21.418a58.516,58.516,0,0,1,6.956,23.424c-.031.282-.092.84-.123,1.122-3.4-.559-6.833-.845-10.256-1.228a26.344,26.344,0,0,0-.471-6.569,77.245,77.245,0,0,0-7.471-22.518,71.923,71.923,0,0,0-10.761-15.65" transform="translate(-2050.124 -61.45)" fill="#d88c19"/>
        <path id="Trazado_1050158" data-name="Trazado 1050158" d="M1997.978,71.8c.488.031.977.066,1.469.1.075,13.819.048,27.643.009,41.463-.506-.009-1.012-.009-1.509-.013-.132-4.628.163-9.266-.2-13.885a40.6,40.6,0,0,1,.128-4.853c.185-6.89-.211-13.771-.167-20.665a10.7,10.7,0,0,1,.268-2.147" transform="translate(-1802.389 -64.779)" fill="#f5fcff"/>
        <path id="Trazado_1050159" data-name="Trazado 1050159" d="M2176.661,71.691c.145-.154.444-.458.59-.612.075,12.174-.071,24.352.009,36.526a32.236,32.236,0,0,1-.18,4.919,13.063,13.063,0,0,1-.317-3.6c.194-4.241.048-8.487.057-12.728.057-8.166.066-16.336-.158-24.5" transform="translate(-1963.848 -64.13)" fill="#dfae47"/>
        <path id="Trazado_1050160" data-name="Trazado 1050160" d="M2185.247,71.608c.066-1.289-.308-2.732.5-3.859l1.25.722q.06,20.584,0,41.168c-.554,0-1.108.009-1.659.009-.189-12.675-.026-25.36-.092-38.04" transform="translate(-1971.567 -61.125)" fill="#fffefa"/>
        <path id="Trazado_1050161" data-name="Trazado 1050161" d="M1118.475,112.891c.616-.035,1.232-.07,1.852-.1a28.564,28.564,0,0,1,.154,4.25c-.216,3.1.062,6.2.031,9.3-.062,6.318.031,12.631-.013,18.945-.22,6.74.1,13.481-.009,20.221.1,3.053-.211,6.12.11,9.165.106.2.317.612.422.814a3.116,3.116,0,0,1-2.4,1.412c.361-.576.735-1.144,1.113-1.711-.022-.132-.062-.392-.079-.524-.422.04-.836.088-1.258.1q.112-14.737.044-29.478c.009-9.543-.013-19.086.009-28.624q0-1.887.026-3.766" transform="translate(-1009.05 -101.766)" fill="#757fbe"/>
        <path id="Trazado_1050162" data-name="Trazado 1050162" d="M2758.768,112.908c.44-.686,2.05-.616,1.954.4.193,1.9.022,3.806.053,5.706.018,18.448-.018,36.9.022,55.339.431.286.871.572,1.311.858-.414.515-.827,1.03-1.276,1.513-.823-.7-1.064-1.953-2.125-2.4-.083-13.313-.022-26.631.035-39.945-.22-5.72.1-11.444-.075-17.163a29.96,29.96,0,0,1,.1-4.307" transform="translate(-2488.927 -101.462)" fill="#737ec3"/>
        <path id="Trazado_1050163" data-name="Trazado 1050163" d="M3066.294,111.894c.581.1,1.179.2,1.769.286.009,20.555.083,41.111.026,61.666-.66-.013-1.315-.018-1.971-.013-.048-18.743-.013-37.49-.048-56.237a36.832,36.832,0,0,1,.224-5.7" transform="translate(-2766.284 -100.954)" fill="#747cbe"/>
        <path id="Trazado_1050164" data-name="Trazado 1050164" d="M1653.246,509.618c8.342-.172,16.684-.079,25.025-.048,4.716.585,9.477.638,14.224.792,7.787.572,15.531,1.6,23.314,2.226.308.62.656,1.219,1.007,1.822-7.629-.928-15.249-1.984-22.931-2.328a113.529,113.529,0,0,0-13.731-.3c1.667-.15,3.335-.277,5-.427-4.725.194-9.45-.114-14.176-.114-16.112-.07-32.271.317-48.225,2.71.26-.691.541-1.377.8-2.072,5.962-.286,11.857-1.456,17.832-1.584,3.951-.282,7.919-.277,11.862-.677" transform="translate(-1464.098 -459.701)" fill="#f9fcfe"/>
        <path id="Trazado_1050165" data-name="Trazado 1050165" d="M2190.566,507.577a67.054,67.054,0,0,1,12.944.546c2.583.224,5.183-.031,7.761.3,1.993.26,3.982.532,5.988.682,3.423.383,6.859.669,10.256,1.228.031-.282.093-.84.123-1.122.083-.634.194-1.267.3-1.9.031,1.1.057,2.2.167,3.287-7.783-.629-15.527-1.654-23.314-2.226-4.747-.154-9.508-.207-14.224-.792" transform="translate(-1976.393 -457.709)" fill="#ebca85"/>
        <path id="Trazado_1050166" data-name="Trazado 1050166" d="M1567.214,529.795c15.953-2.393,32.113-2.781,48.225-2.71,4.725,0,9.451.308,14.176.114-1.667.15-3.335.277-5,.427a113.5,113.5,0,0,1,13.731.3c7.682.343,15.3,1.4,22.931,2.327a11.8,11.8,0,0,1,5.482,4.083c-.233.66-.453,1.324-.669,1.989a22.485,22.485,0,0,1-6.736.554c-4.364.079-8.72.374-13.085.37-6.164.128-12.332.1-18.492.374-15.236-.022-30.481.281-45.713-.233-4.426-.009-8.852-.132-13.283-.136-1.883-.018-3.771.079-5.654-.04a1.941,1.941,0,0,1-1.685-2.82,9.2,9.2,0,0,1,5.772-4.6" transform="translate(-1408.556 -475.545)" fill="#d98f1b"/>
        <path id="Trazado_1050167" data-name="Trazado 1050167" d="M2431.316,627.694c4.365,0,8.72-.29,13.085-.37A37.4,37.4,0,0,1,2443.05,638c-.3,1.038-.634,2.068-.95,3.1-2.09-.805-4.079.348-5.2,2.1a22.822,22.822,0,0,1-.224,4.2,23.5,23.5,0,0,1-.255-4.043,6.107,6.107,0,0,1,1.636-2.741c-2.042-.11-3.533-1.571-4.9-2.926a52.148,52.148,0,0,1-1.844-10" transform="translate(-2193.605 -565.99)" fill="#151314"/>
        <path id="Trazado_1050168" data-name="Trazado 1050168" d="M1638.776,631.149c4.43,0,8.856.128,13.282.136a49.006,49.006,0,0,1-1.522,9.358c-1.271.717-2.406,1.764-3.863,2.09-1.575-.18-3.1-.691-4.677-.84-.092.576-.185,1.157-.273,1.738.744.29,1.5.572,2.231.9a4.285,4.285,0,0,0-3.3.427c.88-.642.207-1.694.026-2.512a34.612,34.612,0,0,1-1.909-11.3" transform="translate(-1478.552 -569.441)" fill="#141213"/>
        <path id="Trazado_1050169" data-name="Trazado 1050169" d="M1760.583,631.245c15.232.515,30.476.211,45.713.233,6.16-.277,12.328-.246,18.492-.374a52.184,52.184,0,0,0,1.844,10,9.086,9.086,0,0,0-4.1-1.113,4.086,4.086,0,0,0-2.336-1.813,26.165,26.165,0,0,0-16.076.132c-.836.339-1.936.537-2.393,1.4-.18.334-.356.673-.524,1.012a8.718,8.718,0,0,0-4.043,6.542,17.819,17.819,0,0,0-9.406.048,8.508,8.508,0,0,0-3.7-6.45c-.242-1.927-2.314-2.38-3.859-2.847a26.693,26.693,0,0,0-13.762-.211c-1.368.44-2.926.893-3.6,2.3a27.034,27.034,0,0,0-3.771.493,49.026,49.026,0,0,0,1.522-9.358" transform="translate(-1587.077 -569.401)" fill="#f5ba9b"/>
        <path id="Trazado_1050170" data-name="Trazado 1050170" d="M1801.229,692.247a26.692,26.692,0,0,1,13.762.211c1.544.466,3.617.92,3.859,2.847a8.6,8.6,0,0,0-4.589-.985c-5.544.057-11.1-.356-16.635.224.677-1.4,2.235-1.857,3.6-2.3" transform="translate(-1621.871 -623.834)" fill="#100f0f"/>
        <path id="Trazado_1050171" data-name="Trazado 1050171" d="M2197.134,692.514a26.165,26.165,0,0,1,16.076-.132,4.086,4.086,0,0,1,2.336,1.813c-3.978.075-7.968-.308-11.923.255-3,.048-6.036-.805-8.962.3.022-.207.057-.625.079-.831.458-.867,1.558-1.065,2.394-1.4" transform="translate(-1980.088 -623.599)" fill="#121112"/>
        <path id="Trazado_1050172" data-name="Trazado 1050172" d="M1677.739,720.1a27.049,27.049,0,0,1,3.771-.493c5.53-.581,11.092-.167,16.635-.224a8.6,8.6,0,0,1,4.589.985,8.507,8.507,0,0,1,3.7,6.45,17.819,17.819,0,0,1,9.406-.048,8.718,8.718,0,0,1,4.043-6.542c.167-.339.343-.678.524-1.012-.022.207-.057.625-.079.832,2.926-1.1,5.966-.251,8.962-.3,3.955-.563,7.946-.18,11.923-.255a9.086,9.086,0,0,1,4.1,1.113c1.364,1.355,2.855,2.816,4.9,2.926a6.108,6.108,0,0,0-1.637,2.741,23.528,23.528,0,0,0,.255,4.043,15.7,15.7,0,0,1-8.236,11.1,21.508,21.508,0,0,1-10.37,1.905,14.192,14.192,0,0,1-10.964-6.089,20.989,20.989,0,0,1-3.441-8.029,15.3,15.3,0,0,0-9.455.176,17.1,17.1,0,0,1-9.156,12.733c-2.719,1.333-5.847,1.355-8.8,1.073a17.059,17.059,0,0,1-9.895-3.942,16.276,16.276,0,0,1-5.284-12.143c.172-1.421-1.03-2.393-2.068-3.111-.735-.33-1.487-.612-2.231-.9.088-.581.18-1.161.273-1.738,1.579.15,3.1.66,4.677.84,1.456-.326,2.591-1.373,3.863-2.09m4.532,1.632c-1.764,0-4.18-.031-5.1,1.782a1.724,1.724,0,0,0-1.694,1.241c-.33,1.439-1.008,3.3.268,4.483-.04.145-.127.44-.167.585a13.72,13.72,0,0,0,9.525,10.661,18.745,18.745,0,0,0,9.833.2,13.956,13.956,0,0,0,8.579-8.658c.867-2.332,1.294-5.047.189-7.37a5,5,0,0,0-3.867-2.979c-5.852-.664-11.712.576-17.563.057m40.266-.018a5.573,5.573,0,0,0-4.369,4.3c-.73,3.529.752,7.11,2.8,9.926a12.394,12.394,0,0,0,9.261,5.31c4.092.194,8.5-.537,11.738-3.234a13.748,13.748,0,0,0,4.945-8.676c-.062-2.2-.048-4.9-1.927-6.419-1.632-1.395-3.916-1.311-5.926-1.188-5.5.422-11.034-.757-16.521-.018" transform="translate(-1505.754 -648.896)" fill="#1f2743"/>
        <path id="Trazado_1050173" data-name="Trazado 1050173" d="M2541.611,739.641c.317-1.034.651-2.063.95-3.1-.071.26-.2.774-.269,1.03,6.864-.216,13.736-.048,20.6-.18,1.06.444,1.3,1.694,2.125,2.4.449-.484.862-1,1.276-1.513-.44-.286-.88-.572-1.311-.858q13.978.066,27.964-.009c.656,0,1.311,0,1.971.013,21.453.075,42.91-.013,64.358.053a3.306,3.306,0,0,1,3.339,3.515c-.009,13.714.1,27.432-.009,41.15,5,.189,10-.044,15.012.07-.057,31.158.013,62.317-.018,93.475-3.185-.172-6.366.15-9.552.1-8.355-.238-16.71-.154-25.065-.062-5.869-.048-11.738-.022-17.607-.035-4.695,0-9.389-.216-14.074-.013-3.265-8.962-6.463-17.968-10.647-26.552,4.51-.1,9.024-.057,13.538-.04,7.009-6.714,14.119-13.327,21.057-20.115q-.014-16.281-.018-32.562c-14.053.141-28.114.185-42.167-.026-.127,5.882.105,11.773.009,17.656a4.3,4.3,0,0,1-2.548,3.916,16.11,16.11,0,0,1-2.869.339c-.431.207-.84.444-1.254.673-.286-.651-.572-1.3-.854-1.945a10.263,10.263,0,0,1-1.193-4.7c-.59-.04-1.175-.075-1.755-.11-.048,3.4.185,6.806-.017,10.2.022.854-1.126.88-1.685.585a4.847,4.847,0,0,1-.334-2.349c.057-2.737.035-5.473-.022-8.21-.537-.088-1.074-.176-1.6-.26-.017-5.227,0-10.454-.017-15.68q-1.986-.013-3.973-.092c.07-1.76-.343-3.656.18-5.332,2.666-2.6,5.68-4.844,8.429-7.365.779-.633,1.536-1.553,2.653-1.465,4.5-.1,8.993.031,13.494.013q.007-2.2.013-4.4c1.615-.018,3.229-.026,4.844-.04.017-5.341.026-10.687,0-16.028,2.134,0,4.272,0,6.415,0,.013,5.332,0,10.665.013,16q2.31-.007,4.624.044-.039,2.217-.031,4.435c13.164-.176,26.332.075,39.5-.114-.013-10.163.013-20.326-.022-30.485q-54.8.059-109.587.009c.444-4.255-.172-9.283-3.867-12.02M2592,787.32a2.281,2.281,0,0,0-.687,3.551,2.235,2.235,0,0,0,3.784-.99,2.267,2.267,0,0,0-3.1-2.561m30.441,0a2.27,2.27,0,0,0-.726,3.573,2.21,2.21,0,1,0,.726-3.573m21.624,3.163c.066,7.633-.052,15.267-.013,22.9,8.227-.026,16.459.009,24.686,0-.158-7.62.031-15.24-.11-22.861-8.188-.079-16.375.088-24.563-.04m-57.213,15.364a1.863,1.863,0,0,0,.326,3.273c1.2.717,2.495-.466,2.517-1.689a1.828,1.828,0,0,0-2.842-1.584m50.913,15.716c-.11,3.062-.105,6.133-.105,9.2.132,8.549-.088,17.1.009,25.654,11.76-.031,23.516.035,35.272,0,.163-11.606-.246-23.213-.026-34.819-11.712-.053-23.433-.031-35.149-.035M2627.5,845.189a53.292,53.292,0,0,0-4.043,3.867c3.96-.018,7.92.066,11.879-.018-.114-3.656.071-7.321-.149-10.977-2.684,2.244-5.117,4.76-7.686,7.128" transform="translate(-2293.116 -664.527)" fill="#7a83c7"/>
        <path id="Trazado_1050174" data-name="Trazado 1050174" d="M316.377,745.681c.422-.009.836-.057,1.258-.1.018.132.057.392.079.524-.378.568-.752,1.135-1.113,1.711a3.116,3.116,0,0,0,2.4-1.412c-.105-.2-.317-.612-.422-.814,16.859.066,33.723-.114,50.583.1.18.818.854,1.87-.026,2.512-3.458,2.706-4.123,7.493-3.625,11.593q-29.111.033-58.23-.018c-.044,3.1-.018,6.19-.009,9.288,11.338.057,22.676.018,34.014.022a26.234,26.234,0,0,1,4.628.141c.6.436.541,1.241.59,1.9.009,2.2-.062,4.4-.009,6.6.066,1.8-.559,3.533-.532,5.328.128,9.085.026,18.171.057,27.256a10.208,10.208,0,0,1-.308,3.546,1.274,1.274,0,0,1-1.571-.189,19.463,19.463,0,0,1-.167-4.668c.018-9.437-.062-18.875.013-28.312-2.323-.026-4.646-.053-6.965.018,0,5.324.04,10.647.035,15.971a44.139,44.139,0,0,1-.11,5.658,1.032,1.032,0,0,1-1.865-.8c-.145-6.969.1-13.947-.141-20.912-24.731.145-49.465-.022-74.2.044.18,7.444-.079,14.893.07,22.337,9.354.114,18.721-.092,28.065.075,2.072,1.654,3.718,3.792,5.689,5.574.779.871,2.077,1.628,1.958,2.965-.009,5.953.022,11.91-.009,17.863,3.6-.11,7.2-.009,10.792-.1q-.007,2.877-.057,5.764c2.851,2.759,5.636,5.588,8.443,8.395a33.354,33.354,0,0,0-8.157,9.591c-3.353-3.471-6.736-6.925-10.194-10.291-1.654-.651-3.568-.1-5.324-.26-1.333.145-3-.458-4.052.616-5.728,5.561-11.2,11.4-16.917,16.965-.783.616-.594,1.646-.6,2.517.238,7.079-.088,14.158-.035,21.242-4.976-.088-9.956-.242-14.932-.07-.092-7.211-.031-14.422-.048-21.633a25.726,25.726,0,0,1,.132-4.32,29.751,29.751,0,0,1,3.366-3.7c6.239-6.265,12.4-12.605,18.716-18.782q.013-2.983.018-5.966c3.595-.035,7.189-.026,10.784-.035-.079-5.029-.066-10.062-.009-15.091a24.082,24.082,0,0,0-3.084-2.983c-10.66-.07-21.338.057-32.008-.057-.211,2.059.933,4.936-1.056,6.349-2.314.449-4.7.132-7.039.2-.031,22.02.026,44.041-.053,66.061-5.183-.11-10.37.048-15.553-.022q-.04-42.276-.04-84.562c-.2-8.087-.04-16.178-.136-24.269q.013-2.983-.009-5.962c.906.013,1.817.022,2.723.026,20.3-.048,40.6.026,60.9-.053.075-6.771-.053-13.547.009-20.318a3.085,3.085,0,0,1,2.138-2.93,18.128,18.128,0,0,1,3.845-.216c5.768.057,11.536-.075,17.3.083m-71.165,34.964c.026,5.579.07,11.158.009,16.736,2.363.207,4.8-.238,7.119.268,1.865,1.117.893,3.647,1.06,5.42,1.791.009,3.581.009,5.368-.088.048-7.457-.11-14.919,0-22.377-4.518.092-9.041.035-13.56.04" transform="translate(-207.031 -672.688)" fill="#7a82c7"/>
        <path id="Trazado_1050175" data-name="Trazado 1050175" d="M1743.617,742.572c5.852.519,11.712-.722,17.563-.057a5,5,0,0,1,3.867,2.979c1.1,2.323.678,5.038-.189,7.369a13.956,13.956,0,0,1-8.579,8.659,18.744,18.744,0,0,1-9.833-.2,13.72,13.72,0,0,1-9.525-10.66c.04-.145.128-.44.167-.585.528-1.9.867-3.837,1.426-5.724.924-1.813,3.339-1.786,5.1-1.782m9.789,4.615a3.056,3.056,0,0,0-.493,5.13,3.061,3.061,0,1,0,.493-5.13" transform="translate(-1567.101 -669.738)" fill="#f7dfd0"/>
        <path id="Trazado_1050176" data-name="Trazado 1050176" d="M2175.191,742.47c5.486-.739,11.017.44,16.521.018,2.01-.123,4.294-.207,5.926,1.188,1.878,1.522,1.865,4.215,1.927,6.419a13.748,13.748,0,0,1-4.945,8.676c-3.234,2.7-7.646,3.427-11.738,3.234a12.394,12.394,0,0,1-9.261-5.31c-2.046-2.816-3.529-6.4-2.8-9.926a5.573,5.573,0,0,1,4.369-4.3m5.178,4.668a3.027,3.027,0,0,0-.207,5.249,3.094,3.094,0,0,0,4.615-2.305,3.024,3.024,0,0,0-4.408-2.943" transform="translate(-1958.409 -669.653)" fill="#f6ded0"/>
        <path id="Trazado_1050177" data-name="Trazado 1050177" d="M1731.482,764.42a1.724,1.724,0,0,1,1.694-1.241c-.559,1.888-.9,3.828-1.426,5.724-1.276-1.179-.6-3.045-.269-4.483" transform="translate(-1561.764 -688.563)" fill="#1b1415"/>
        <path id="Trazado_1050178" data-name="Trazado 1050178" d="M1623.23,766.255a4.284,4.284,0,0,1,3.3-.427c1.038.717,2.24,1.69,2.068,3.111a16.277,16.277,0,0,0,5.284,12.143,17.059,17.059,0,0,0,9.9,3.942c2.952.282,6.08.26,8.8-1.073a17.1,17.1,0,0,0,9.156-12.733,15.3,15.3,0,0,1,9.455-.176,20.987,20.987,0,0,0,3.441,8.029,14.191,14.191,0,0,0,10.964,6.089,21.508,21.508,0,0,0,10.37-1.905,15.7,15.7,0,0,0,8.236-11.1,22.78,22.78,0,0,0,.224-4.2c1.122-1.755,3.111-2.908,5.2-2.1,3.7,2.737,4.312,7.765,3.867,12.02-1.148,5.253-3.6,10.757-8.395,13.621-1.192.792-2.653.893-3.982,1.311a55.873,55.873,0,0,1-5.856,13.564,54.771,54.771,0,0,1-5.526,7.193c-1.17,1.087-1.206,2.776-1.28,4.259a49.743,49.743,0,0,0,.317,8.452c.383,2.6.154,5.28.946,7.814.3,1.157.867,2.473.066,3.564-6.432,4.624-12.812,9.323-19.332,13.824a26.939,26.939,0,0,0-4.131,3.159c-.044-.044-.128-.128-.172-.167-7.994-6.067-16.472-11.488-24.409-17.634,2.077-5.174,1.782-10.894,2.024-16.362a31.054,31.054,0,0,0-.136-6.393,50.256,50.256,0,0,1-9.393-14.422c-1.139-2.086-1.593-4.439-2.534-6.608a14.483,14.483,0,0,1-6.727-3.92,29.793,29.793,0,0,1-2.75-3.788c-1.456-2.248-1.993-4.919-2.609-7.488-.5-4.1.167-8.887,3.625-11.593m.634,7.677c.941,1.135,2.2,2.055,2.759,3.467.959,2.314.9,4.87,1.342,7.308l1.641-.026a17.256,17.256,0,0,0-1.258-7.286c-.836-1.923-1.945-3.973-3.977-4.831-.229.422-.915.832-.506,1.368m83.334-.515c-2.842,2.93-3.894,7.193-3.854,11.18.33.11.99.339,1.315.453,1.131-2.6.677-5.623,2.033-8.135.748-1.377,2.644-2.1,2.618-3.841-.73-.136-1.588-.352-2.112.343m-39.1.106c-.114,4.615,1.1,9.2.651,13.828a1.947,1.947,0,0,1-2.05,1.654c-1.346-.062-2.1-1.32-3.115-2.011-.687-.387-1.162.44-1.593.805a4.993,4.993,0,0,0,7.343,2.279c1.9-1.593,1.6-4.325,1.461-6.538-.422-3.37-.33-6.793-1.008-10.133-.568.04-1.131.075-1.689.114m-13.282,28.044a2.175,2.175,0,0,0,.99,2.05,18.494,18.494,0,0,0,21.334-.444,1.05,1.05,0,0,0-.669-1.931,23.045,23.045,0,0,1-6.115,3.111c-4.505,1.056-9.6.51-13.309-2.429a1.87,1.87,0,0,0-2.23-.356m-10.529,13.344c0,1.342-.295,2.869.66,3.986a38.965,38.965,0,0,0,8.166,8.971,20.988,20.988,0,0,0,10.506,4.919,20.408,20.408,0,0,0,12.438-2.539,31.672,31.672,0,0,0,9.213-8.355c1.469-1.975,3.779-4.316,2.763-6.978a35.57,35.57,0,0,1-7.581,5.68,29.58,29.58,0,0,1-24.18,1.94,34.885,34.885,0,0,1-11.985-7.625" transform="translate(-1461.123 -690.737)" fill="#f5ba9a"/>
        <path id="Trazado_1050179" data-name="Trazado 1050179" d="M1890.127,789.047a3.061,3.061,0,1,1-.493,5.13,3.056,3.056,0,0,1,.493-5.13" transform="translate(-1703.821 -711.598)" fill="#323844"/>
        <path id="Trazado_1050180" data-name="Trazado 1050180" d="M2255.2,789.155a3.024,3.024,0,0,1,4.408,2.943,3.094,3.094,0,0,1-4.615,2.305,3.027,3.027,0,0,1,.207-5.249" transform="translate(-2033.24 -711.67)" fill="#343c48"/>
        <path id="Trazado_1050181" data-name="Trazado 1050181" d="M1663.339,838.3c-.409-.537.277-.946.506-1.368,2.033.858,3.141,2.908,3.977,4.831a17.258,17.258,0,0,1,1.258,7.286l-1.641.026c-.44-2.437-.383-4.994-1.342-7.308-.563-1.412-1.817-2.332-2.759-3.467" transform="translate(-1500.599 -755.107)" fill="#df7b53"/>
        <path id="Trazado_1050182" data-name="Trazado 1050182" d="M2481.285,841.186c.523-.7,1.381-.479,2.112-.343.026,1.738-1.87,2.464-2.618,3.841-1.355,2.512-.9,5.539-2.033,8.135-.326-.114-.986-.343-1.315-.453-.04-3.986,1.012-8.249,3.854-11.18" transform="translate(-2235.211 -758.505)" fill="#dc7c51"/>
        <path id="Trazado_1050183" data-name="Trazado 1050183" d="M2060.548,845.688c.559-.04,1.122-.075,1.689-.114.678,3.339.585,6.762,1.008,10.132.136,2.213.44,4.945-1.461,6.538a4.993,4.993,0,0,1-7.343-2.279c.431-.365.906-1.192,1.593-.805,1.016.691,1.769,1.949,3.115,2.011a1.947,1.947,0,0,0,2.05-1.654c.445-4.624-.766-9.213-.651-13.828" transform="translate(-1853.577 -762.902)" fill="#dc825d"/>
        <path id="Trazado_1050184" data-name="Trazado 1050184" d="M1981.046,1130.425a1.871,1.871,0,0,1,2.231.356c3.713,2.939,8.8,3.485,13.309,2.429a23.055,23.055,0,0,0,6.115-3.111,1.05,1.05,0,0,1,.669,1.931,18.493,18.493,0,0,1-21.334.444,2.175,2.175,0,0,1-.99-2.05" transform="translate(-1787.358 -1019.595)" fill="#dc825b"/>
        <path id="Trazado_1050185" data-name="Trazado 1050185" d="M3045.243,1253.971a2.267,2.267,0,0,1,3.1,2.561,2.235,2.235,0,0,1-3.784.99,2.281,2.281,0,0,1,.687-3.551" transform="translate(-2746.359 -1131.178)" fill="#d2ddef"/>
        <path id="Trazado_1050186" data-name="Trazado 1050186" d="M3356.242,1254.047a2.21,2.21,0,1,1-.726,3.573,2.269,2.269,0,0,1,.726-3.573" transform="translate(-3026.917 -1131.25)" fill="#d7dcee"/>
        <path id="Trazado_1050187" data-name="Trazado 1050187" d="M1872.964,1270.059a34.887,34.887,0,0,0,11.985,7.625,29.579,29.579,0,0,0,24.181-1.94,35.547,35.547,0,0,0,7.581-5.68c1.016,2.662-1.293,5-2.763,6.978a31.673,31.673,0,0,1-9.213,8.355,20.41,20.41,0,0,1-12.438,2.539,20.991,20.991,0,0,1-10.506-4.919,38.961,38.961,0,0,1-8.166-8.971c-.955-1.118-.66-2.644-.66-3.986" transform="translate(-1689.805 -1145.885)" fill="#e1845f"/>
        <path id="Trazado_1050188" data-name="Trazado 1050188" d="M3589.328,1288.329c8.188.128,16.376-.04,24.563.04.141,7.62-.048,15.24.11,22.861-8.227.009-16.459-.026-24.686,0-.04-7.633.079-15.267.013-22.9m4.734,6.52a1.027,1.027,0,0,0,.854,1.813c4.461-.013,8.931.07,13.388,0,1.078.079,1.232-1.786.18-1.892-3.062-.277-6.142.026-9.208.026-1.738.048-3.484-.145-5.213.053m2.165,6.819c2.6.167,5.222-.075,7.835.106,1.263-.048,2.917.44,3.749-.827-.229-.431-.449-.858-.66-1.284-3.506.009-7.013,0-10.511.11a1.03,1.03,0,0,0-.414,1.9" transform="translate(-3238.378 -1162.368)" fill="#dadef0"/>
        <path id="Trazado_1050189" data-name="Trazado 1050189" d="M3634.165,1353.212c1.729-.2,3.476,0,5.214-.053,3.066,0,6.146-.3,9.208-.026,1.052.106.9,1.971-.18,1.892-4.457.07-8.927-.013-13.388,0a1.027,1.027,0,0,1-.854-1.813" transform="translate(-3278.481 -1220.731)" fill="#797fc4"/>
        <path id="Trazado_1050190" data-name="Trazado 1050190" d="M3655.612,1406.256a1.03,1.03,0,0,1,.414-1.9c3.5-.11,7-.1,10.511-.11.211.427.431.853.66,1.285-.832,1.267-2.486.779-3.749.827-2.614-.18-5.231.062-7.836-.106" transform="translate(-3297.763 -1266.956)" fill="#7983c5"/>
        <path id="Trazado_1050191" data-name="Trazado 1050191" d="M2996.632,1442.5a1.828,1.828,0,0,1,2.842,1.584c-.022,1.223-1.32,2.407-2.517,1.689a1.863,1.863,0,0,1-.325-3.273" transform="translate(-2702.896 -1301.175)" fill="#d9dfee"/>
        <path id="Trazado_1050192" data-name="Trazado 1050192" d="M1652.771,1500.426c6.335-2.063,12.649-4.206,19.015-6.177,7.937,6.146,16.415,11.567,24.409,17.634-3.212,4.14-6.511,8.21-9.705,12.363l1.5.51c-.66,0-1.329.018-1.98.031a32.715,32.715,0,0,0-13.265.5c-6.666-8.28-13.283-16.6-19.974-24.863" transform="translate(-1491.179 -1348.156)" fill="#fff"/>
        <path id="Trazado_1050193" data-name="Trazado 1050193" d="M2122.139,1496.64c1.448-1.311,3.282-.312,4.835.211,5.011,1.751,10.1,3.273,15.065,5.156-1.892,1.72-3.181,3.969-4.937,5.812q-10.692,13.179-21.286,26.424c-.37.027-.739.057-1.1.093-5.218-7-10.484-13.978-16.037-20.714a26.949,26.949,0,0,1,4.131-3.159c6.521-4.5,12.9-9.2,19.332-13.824" transform="translate(-1893.488 -1349.728)" fill="#fff"/>
        <path id="Trazado_1050194" data-name="Trazado 1050194" d="M2535.369,1543.569c5.838,1.848,11.6,3.933,17.418,5.843-.009.414-.013.827-.018,1.245-.2,8.782-.141,17.568-.4,26.35a46.2,46.2,0,0,0-.268-7.4c-.66,8.443-.295,16.926-.59,25.382a9.7,9.7,0,0,0,.4,2.833c-2.855,1.685-4.316,4.875-4.765,8.056-4.444-.026-8.883.013-13.326-.044l.018-.088c1.078-2.82.409-5.874.827-8.795.761-2.649.554-5.42.59-8.139a47.07,47.07,0,0,0-.471-8.553c-.092-5.764.911-11.545.225-17.3.07-6.19.114-12.39.281-18.575.018-.2.057-.612.075-.818" transform="translate(-2286.092 -1392.654)" fill="#4d58b0"/>
        <path id="Trazado_1050195" data-name="Trazado 1050195" d="M1353.808,1549.608c5.667-1.909,11.25-4.092,17.009-5.724a9.82,9.82,0,0,1,.418,2.992c-.167,4.1.207,8.21-.158,12.306.211-1.052.409-2.107.524-3.172a23.159,23.159,0,0,0,.4,4.576c-.07,3.177.07,6.357.088,9.539-.189,5.451.084,10.9.093,16.354a10.413,10.413,0,0,1-1.047,3.757,31.115,31.115,0,0,0,2.108,24.612c-.114.713-.229,1.426-.339,2.147q.891.086,1.8.185a31,31,0,0,0,16.569,12.6c-.515,1.716-.884,3.471-1.267,5.222-2.31-.392-3.779,1.646-4.206,3.643-3.885.4-7.862.444-11.615,1.645-2.895,1.025-5.029,3.362-7.229,5.4q-1.419-.04-2.838-.057a9.275,9.275,0,0,1-.6,3.718c-3.577,4.07-6.762,8.469-10.357,12.517-.942.062-1.566-.7-2.231-1.236-.858.088-1.707.2-2.556.33.365.035,1.1.1,1.461.136a36.56,36.56,0,0,0-7.462,3.273c.251-3.317.6-6.639.541-9.97.154-2.292.083-4.593.233-6.885.356-3.771.1-7.576.625-11.333.1-6.4.6-12.772.62-19.169,3.6.053,7.2.022,10.8.022.11-.009.321-.018.427-.022-.009-3.995.339-8.034-.383-11.985a61.2,61.2,0,0,0-.458-6.894c-.048-6.538-.246-13.076-.3-19.614.022-1.914-.356-3.8-.4-5.711-.071-7.308-.106-14.615-.229-21.919-.013-.427-.022-.854-.026-1.276" transform="translate(-1211.117 -1392.938)" fill="#4e59b2"/>
        <path id="Trazado_1050196" data-name="Trazado 1050196" d="M1633.421,1542.909l.361-.105c.075.576.145,1.153.211,1.738.128,3.493.15,7,.211,10.493-.114,1.065-.312,2.121-.523,3.172.365-4.1-.009-8.205.158-12.306a9.822,9.822,0,0,0-.418-2.992" transform="translate(-1473.721 -1391.963)" fill="#262c53"/>
        <path id="Trazado_1050197" data-name="Trazado 1050197" d="M2047.042,1552.674c.018-.185.057-.55.075-.735-.167,6.186-.211,12.385-.282,18.575l-.084-.524c-.444-3.093-.145-6.226-.374-9.327-.66,10.418-.308,20.863-.607,31.295a64.47,64.47,0,0,1-.326,8.346c-.515,4.188-.233,8.417-.374,12.627-.964.154-1.918.312-2.873.475-.141.224-.413.682-.55.911a13.028,13.028,0,0,0-.858,1.628c-8,.048-16-.022-24,.04a32.521,32.521,0,0,0-.312-18.575,30.585,30.585,0,0,0-17.726-18.857,26.862,26.862,0,0,0-2.763-.937c-1.082-.273-2.16-.541-3.247-.779.651-.013,1.32-.026,1.98-.031l-1.5-.51c3.194-4.153,6.494-8.223,9.706-12.363.044.04.128.123.172.167,5.552,6.736,10.819,13.709,16.037,20.714.365-.035.735-.066,1.1-.092q10.6-13.245,21.286-26.424c1.755-1.843,3.045-4.092,4.936-5.812Z" transform="translate(-1797.914 -1400.205)" fill="#f3ae29"/>
        <path id="Trazado_1050198" data-name="Trazado 1050198" d="M1639.271,1557.737c.436-.1.875-.2,1.32-.308,6.692,8.258,13.309,16.582,19.974,24.863A31,31,0,0,0,1642.2,1595.8a5.255,5.255,0,0,1-1.536-4.149c-.114-5.135-.119-10.273-.083-15.412a8.379,8.379,0,0,0-.7-3.432,23.155,23.155,0,0,1-.4-4.575c-.062-3.5-.083-7-.211-10.493" transform="translate(-1478.999 -1405.158)" fill="#f4ae2a"/>
        <path id="Trazado_1050199" data-name="Trazado 1050199" d="M2991.071,1559.634l.854,1.945c.414-.229.823-.466,1.254-.673-.035,3.2.035,6.4,0,9.6-.682,0-1.359.009-2.032.022-.048-3.634-.057-7.268-.079-10.9" transform="translate(-2698.633 -1407.148)" fill="#6c73be"/>
        <path id="Trazado_1050200" data-name="Trazado 1050200" d="M3523.958,1606.2c11.716,0,23.437-.018,35.149.035-.22,11.606.189,23.213.026,34.819-11.756.035-23.512-.031-35.272,0-.1-8.553.123-17.106-.009-25.655,0-3.067,0-6.138.106-9.2m21.264,3.278a2.129,2.129,0,0,0-.7,3.771,2.1,2.1,0,0,0,3.229-.972c.766-1.522-1-3.3-2.534-2.8m-16.864.207a2.253,2.253,0,0,0-.7,3.282,2.144,2.144,0,1,0,.7-3.282m8.025.176a2.092,2.092,0,0,0,.071,3.555c1.448,1.14,3.753-.625,3.168-2.323a2.083,2.083,0,0,0-3.238-1.232m16.27.057a2.066,2.066,0,0,0,.163,3.392c1.408,1.153,3.709-.664,3.119-2.305a2.068,2.068,0,0,0-3.282-1.087m-23.732,7.919a2.114,2.114,0,0,0-1.593,2.807,2.178,2.178,0,0,0,3.647.546c1.373-1.324-.238-3.973-2.055-3.353m7.906,0a2.129,2.129,0,0,0-1.311,2.741c.581,1.923,3.881,1.672,4.14-.326a2.116,2.116,0,0,0-2.829-2.416m16.71-.035a2.132,2.132,0,0,0-1.4,3.181,2.192,2.192,0,0,0,3.616-.071,2.074,2.074,0,0,0-2.213-3.11m-8.923.224a2.1,2.1,0,0,0-.26,3.322c1.316,1.4,4.092-.123,3.467-1.993a2.209,2.209,0,0,0-3.207-1.329m-16.125,8.183a2.1,2.1,0,0,0-.717,3.37c1.153,1.342,3.836.444,3.74-1.408a2.139,2.139,0,0,0-3.022-1.962m8.72-.15c-1.368.317-2.341,2.1-1.324,3.269a2.09,2.09,0,0,0,3.731-.779,2.064,2.064,0,0,0-2.406-2.49m7.924.048a2.116,2.116,0,1,0,2.8,2.042,2.112,2.112,0,0,0-2.8-2.042m8.324-.048a2.128,2.128,0,1,0,2.561,2.539,2.139,2.139,0,0,0-2.561-2.539m-25.091,8.355a2.1,2.1,0,1,0,3.049,2.125,2.082,2.082,0,0,0-3.049-2.125m8.39-.044a2.132,2.132,0,0,0-.035,3.828,2.1,2.1,0,0,0,2.886-2.473,2,2,0,0,0-2.851-1.355m7.941.048a2.152,2.152,0,0,0,.317,3.854c1.7.792,3.581-1.5,2.614-3.049a2.136,2.136,0,0,0-2.93-.805m8.293-.035a2.135,2.135,0,0,0,.009,3.8c1.637.9,3.652-1.25,2.8-2.847a2.086,2.086,0,0,0-2.807-.955" transform="translate(-3179.309 -1449.161)" fill="#d9ddf0"/>
        <path id="Trazado_1050201" data-name="Trazado 1050201" d="M589.915,1620.578c5.451-1.681,10.828-3.634,16.345-5.1.123,7.3.158,14.611.229,21.919.048,1.909.427,3.8.4,5.711.053,6.538.251,13.076.3,19.614-.334,4.848.04,9.706.018,14.559a29.035,29.035,0,0,0-.07,3.713c-2.517.083-5.033.062-7.55-.026-.955.026-2.1-.216-2.785.634-.022,6.4-.519,12.772-.62,19.169-.528,3.757-.268,7.563-.625,11.333-.15,2.292-.079,4.594-.233,6.886-.911,2.327-.757,4.857-.854,7.3a8.161,8.161,0,0,0,.312,2.666,36.561,36.561,0,0,1,7.462-3.273c.163,0,.488.009.651.009-.013,1.043-.031,2.081-.026,3.128.136,4.976,1.769,9.78,3.731,14.312a68.923,68.923,0,0,0,10.581,16.028,88.057,88.057,0,0,0,8.4,9.3c-.136.185-.4.559-.541.744q-1.194.871-2.376,1.76c-5.2,3.845-10.6,7.414-15.746,11.338-.035.022-.106.075-.141.1-5.926,3.907-11.664,8.117-17.572,12.064-5.535,3.81-11.2,7.444-17,10.836-6.4,3.669-12.856,7.356-19.887,9.679-4.756,1.588-9.873,1.606-14.809,1.126a29.216,29.216,0,0,1-15.672-9.024,27.781,27.781,0,0,1-7.99-18.342c-.44-5.271,1.047-10.414,2.037-15.535,5.7-23.424,13.093-46.4,20.912-69.194.612-2.055,1.417-4.048,2.125-6.072.022-.048.066-.15.088-.2.035-.1.11-.286.145-.378.906-2.464,1.817-4.927,2.759-7.374,1.21-2.653,2.006-5.46,3.062-8.175.766-2.226,1.813-4.338,2.64-6.542.625-1.527,1.205-3.071,1.8-4.606.106-.286.216-.572.33-.849.981-2.31,2.024-4.6,2.877-6.956.141-.1.418-.3.554-.4a15.078,15.078,0,0,1,1.338-3.85c3.049-6.934,6.142-13.85,9.538-20.626a33.354,33.354,0,0,1,8.157-9.591,41.819,41.819,0,0,1,8.1-4.835,93.246,93.246,0,0,1,9.6-2.979m-1.285,55.959c.312,6.886.616,13.793.365,20.692-.308,9.394-1,18.936-4.228,27.85-1.289,3.577-3,7.541-6.727,9.147-12.9,5.988-25.87,11.853-38.721,17.964-.81.238-.858,1.069-.9,1.778a2.516,2.516,0,0,0,2.085-.071c16.763-8.034,33.728-15.636,50.653-23.309.33-18.259.634-36.552-.55-54.789-.673.035-2.037-.352-1.98.739m-2.543,59.444c-.334,2.521.317,5.016.814,7.466,2.9,13.19,10.933,24.906,21.431,33.266.308-.15.924-.444,1.232-.594-.026-.172-.075-.515-.1-.686-6.934-5.808-13.071-12.772-16.917-21.022a48.2,48.2,0,0,1-4.857-17.115c.035-.9-.6-2.024-1.606-1.315m25.355,29.953c-1.1,1.091-.708,2.763-.035,3.969,1.39.8,3.621,1.21,4.558-.453,1.206-1.351.2-3.1-.761-4.25-1.258,0-2.935-.537-3.762.735" transform="translate(-463.542 -1457.533)" fill="#f3ae2a"/>
        <path id="Trazado_1050202" data-name="Trazado 1050202" d="M2719.719,1616.064a24.615,24.615,0,0,1,3.647,1.333c-1.061-.18-2.116-.343-3.168-.537-.255,15.073-.132,30.155-.823,45.22l.51.51c-.347.2-.686.414-1.021.638.321-6.934.22-13.881.453-20.815.26-8.782.2-17.568.4-26.35" transform="translate(-2453.04 -1458.061)" fill="#d7a55c"/>
        <path id="Trazado_1050203" data-name="Trazado 1050203" d="M2724.909,1624.209c1.052.194,2.107.356,3.168.537,4.659,1.465,9.222,3.212,13.907,4.611,6.727,2.046,13.274,5.473,17.867,10.911,2.451,2.851,3.806,6.4,5.442,9.732,4.184,8.584,7.382,17.59,10.647,26.552.986,2.543,1.708,5.183,2.816,7.677,1.659,4.254,3.018,8.623,4.365,12.983.585,1.852,1.188,3.7,1.764,5.561.3.977.612,1.953.907,2.935.589,2.125,1.267,4.224,1.953,6.322,3.6,11.822,6.732,23.776,10.036,35.681,2.389,10.282,5.267,20.472,6.947,30.908a85.331,85.331,0,0,1,.99,16.239c.044,5.7-2.3,11.175-5.592,15.733a30.794,30.794,0,0,1-8.984,8.377,32.758,32.758,0,0,1-29.1,2.622c-8.962-3.586-16.248-10.128-23.226-16.609a57.416,57.416,0,0,1-.11-6.155c.656-.11,1.311-.216,1.967-.321,1.663-.295,3.44-.18,4.994-.933a8.078,8.078,0,0,0,4.228-6.151c2.011-.673,4.36-1.016,5.729-2.816,1.949-2,1.922-4.95,2.077-7.554a17.06,17.06,0,0,0,3.643-2.913,8.548,8.548,0,0,0,.972-7.462c-.612-1.386.959-2.231,1.553-3.282,1.448-1.738.858-4.074.55-6.08a8.358,8.358,0,0,0-.7-3.929c-.814-1.87-2.715-2.93-3.617-4.743,11.822,1.082,23.873,5.231,32.329,13.85a32.69,32.69,0,0,1,6.322,9.059,30.986,30.986,0,0,0,1.865,4.057c.581-.04,1.162-.092,1.747-.167-1.117-5.24-4.259-9.838-7.827-13.731-7.827-8.417-19.046-12.777-30.182-14.646a27.913,27.913,0,0,0-5.443-.5,18.125,18.125,0,0,1-1.324-2.935c1.87-6.806,3.956-13.551,5.794-20.366.216-.154.647-.458.867-.612.031-.809,0-1.619.013-2.424,3.625-12.649,7.22-25.3,10.885-37.943.207-.981.616-2.046.181-3.014a3.216,3.216,0,0,0-2.917-2.1c-6.3-.092-12.592.009-18.888-.031a10.174,10.174,0,0,0-1.338-1.975,4.212,4.212,0,0,0-2.657-.625c-4.325,0-8.65.11-12.97-.048,1.479-4.184-1.654-9.019-5.957-9.679a8.529,8.529,0,0,0-6,1.126l-.51-.51c.691-15.064.567-30.147.823-45.22M2765.9,1759.75c-.1,4.092.854,8.179.246,12.249a36.812,36.812,0,0,1-6.151,19.169,25.892,25.892,0,0,1-14.629,10.273c0,.532-.009,1.065,0,1.606,2.477-.018,4.611-1.434,6.771-2.464a29.135,29.135,0,0,0,12.808-14.889,46.85,46.85,0,0,0,3.009-13.617c.66-4.052-.25-8.109-.317-12.165-.581-.062-1.162-.115-1.737-.163" transform="translate(-2457.751 -1465.409)" fill="#f4ae2a"/>
        <path id="Trazado_1050204" data-name="Trazado 1050204" d="M3728.006,1638.936c1.531-.5,3.3,1.276,2.534,2.8a2.1,2.1,0,0,1-3.23.972,2.129,2.129,0,0,1,.7-3.771" transform="translate(-3362.093 -1478.618)" fill="#7c80c6"/>
        <path id="Trazado_1050205" data-name="Trazado 1050205" d="M2497.043,1672.469c.3-10.432-.053-20.876.607-31.295.229,3.1-.07,6.234.374,9.327-.581,12.442-.528,24.907-1.039,37.353-.1,1.98-.105,3.969-.048,5.953l-.018.088a7.818,7.818,0,0,0-4,.933c.136-.229.409-.687.55-.911.955-.163,1.909-.321,2.873-.475.141-4.21-.141-8.439.374-12.627a64.512,64.512,0,0,0,.326-8.346" transform="translate(-2249.187 -1480.716)" fill="#d9a757"/>
        <path id="Trazado_1050206" data-name="Trazado 1050206" d="M3559.5,1639.781a2.144,2.144,0,1,1-.7,3.282,2.253,2.253,0,0,1,.7-3.282" transform="translate(-3210.451 -1479.256)" fill="#7d83c5"/>
        <path id="Trazado_1050207" data-name="Trazado 1050207" d="M3643.371,1639.825a2.083,2.083,0,0,1,3.238,1.232c.585,1.7-1.72,3.463-3.168,2.323a2.092,2.092,0,0,1-.071-3.555" transform="translate(-3286.297 -1479.125)" fill="#787ec5"/>
        <path id="Trazado_1050208" data-name="Trazado 1050208" d="M3811.121,1640.076a2.068,2.068,0,0,1,3.282,1.087c.59,1.641-1.711,3.458-3.119,2.305a2.066,2.066,0,0,1-.163-3.392" transform="translate(-3437.777 -1479.318)" fill="#8084c5"/>
        <path id="Trazado_1050209" data-name="Trazado 1050209" d="M1645.3,1714.7a8.377,8.377,0,0,1,.7,3.432c-.035,5.139-.031,10.278.084,15.412a5.254,5.254,0,0,0,1.536,4.149,30.119,30.119,0,0,0-1.83,3.427c-.057-5.631-.4-11.25-.4-16.881-.018-3.181-.158-6.362-.088-9.539" transform="translate(-1484.421 -1547.057)" fill="#f9bc3a"/>
        <path id="Trazado_1050210" data-name="Trazado 1050210" d="M3559.749,1724.379c1.817-.62,3.428,2.028,2.055,3.353a2.178,2.178,0,0,1-3.647-.546,2.115,2.115,0,0,1,1.593-2.807" transform="translate(-3210.137 -1555.702)" fill="#7e85c5"/>
        <path id="Trazado_1050211" data-name="Trazado 1050211" d="M3643.3,1723.639a2.116,2.116,0,0,1,2.829,2.415c-.26,2-3.559,2.248-4.14.326a2.129,2.129,0,0,1,1.311-2.741" transform="translate(-3285.777 -1554.958)" fill="#767ac4"/>
        <path id="Trazado_1050212" data-name="Trazado 1050212" d="M3811.617,1724.109a2.074,2.074,0,0,1,2.213,3.11,2.192,2.192,0,0,1-3.617.07,2.132,2.132,0,0,1,1.4-3.181" transform="translate(-3437.389 -1555.463)" fill="#757ac2"/>
        <path id="Trazado_1050213" data-name="Trazado 1050213" d="M3727.441,1724.782a2.209,2.209,0,0,1,3.207,1.329c.625,1.87-2.151,3.4-3.467,1.993a2.1,2.1,0,0,1,.26-3.322" transform="translate(-3362.135 -1555.912)" fill="#8083c6"/>
        <path id="Trazado_1050214" data-name="Trazado 1050214" d="M665.826,1737.737c1.052-1.073,2.719-.471,4.052-.616,1.755.158,3.669-.392,5.324.26,3.458,3.366,6.841,6.82,10.194,10.291-3.4,6.775-6.49,13.692-9.538,20.625a15.08,15.08,0,0,0-1.338,3.85c-.136.1-.414.3-.554.4,1.271-2.9,1.1-6.067.959-9.156-7.066.04-14.127.022-21.193.07-.066,5,0,10,.07,15.007-1.844-.026-3.687.009-5.53-.013-.053-7.083.273-14.163.035-21.242.009-.871-.18-1.9.6-2.517,5.72-5.57,11.188-11.4,16.917-16.965" transform="translate(-584.885 -1567.221)" fill="#daddf0"/>
        <path id="Trazado_1050215" data-name="Trazado 1050215" d="M2534.752,1736.574l.083.524c.687,5.75-.317,11.531-.225,17.3,0,5.561-.171,11.127-.118,16.692-.418,2.921.251,5.975-.827,8.795-.057-1.984-.053-3.973.048-5.953.51-12.447.458-24.911,1.039-37.353" transform="translate(-2285.915 -1566.788)" fill="#6b637b"/>
        <path id="Trazado_1050216" data-name="Trazado 1050216" d="M3382.743,1782.042c2.569-2.367,5-4.884,7.686-7.128.22,3.656.035,7.321.149,10.977-3.959.083-7.919,0-11.879.017a53.393,53.393,0,0,1,4.043-3.867" transform="translate(-3048.363 -1601.38)" fill="#dbe1ef"/>
        <path id="Trazado_1050217" data-name="Trazado 1050217" d="M1643.285,1802.979a32.72,32.72,0,0,1,13.265-.5c1.087.238,2.165.506,3.247.779-.057.246-.176.743-.238.994,1-.031,2-.075,3-.057a30.585,30.585,0,0,1,17.726,18.857,32.521,32.521,0,0,1,.312,18.575l-.106.559c7.955-.075,15.909-.018,23.864-.018-.673,2.618-1.289,5.249-1.989,7.858-6.256-.035-12.513.057-18.769-.027-5.1,18.443-10.471,36.812-15.7,55.22-4.571,15.927-9.072,31.871-13.626,47.807q39.076-.007,78.151,0c3.995,2.129,7.88,4.531,12.218,5.917-.655.105-1.311.211-1.967.321-6.358.317-12.737.084-19.108.154q-38.271-.02-76.541,0c-1.953.194-3.093-1.711-3.247-3.414q-8.276-.059-16.556.027a15.5,15.5,0,0,1-3.194-.211,3.921,3.921,0,0,1-2.776-3.581c-.29-4.316.273-8.667-.4-12.961q1.182-.891,2.376-1.76l.581-.136c-.572,2.561-.242,5.2-.33,7.8a70.776,70.776,0,0,0,.092,7.295c.312,1.192,1.751,1.271,2.768,1.223,5.887-.132,11.773.079,17.656-.066.871.079.849-1,1.087-1.566,1.315-5.9,3.4-11.6,4.941-17.445,1.54-6.115,3.682-12.055,5.187-18.179.946-3.858,2.376-7.576,3.278-11.443-1.6-.04-3.194-.062-4.791-.053-.321-.677-.664-1.337-1.016-1.989-.092-.185-.281-.559-.378-.744,2.323.167,4.651.224,6.978.211,1.346-4.29,2.433-8.654,3.718-12.957.752-2.728,1.7-5.394,2.349-8.148-2.042-.026-4.078-.04-6.12-.057a15.64,15.64,0,0,0-.678-2.283c2.482.026,4.963.1,7.444-.018,2.156-8.161,4.694-16.208,7.013-24.321a31.29,31.29,0,0,1-24.546,9.323c-.625-.048-1.249-.114-1.87-.194-.977-.141-1.945-.3-2.9-.528-.616-.176-1.223-.361-1.822-.559a31.006,31.006,0,0,1-16.569-12.6c-.506-.766-.994-1.544-1.456-2.332a31.114,31.114,0,0,1-2.107-24.612,10.41,10.41,0,0,0,1.047-3.757c-.009-5.451-.282-10.9-.092-16.354,0,5.631.343,11.25.4,16.881a30.06,30.06,0,0,1,1.83-3.427,31,31,0,0,1,18.368-13.507m-7.44,10.414a24.531,24.531,0,0,0-9.468,22.249,25.279,25.279,0,0,0,6.555,14.29,24.3,24.3,0,0,0,20.674,7.8,24.9,24.9,0,0,0,15.425-7.774,26.1,26.1,0,0,0,6.718-16.53,24.691,24.691,0,0,0-23.6-25.338,33.024,33.024,0,0,0-4.756.233,26.248,26.248,0,0,0-11.553,5.073" transform="translate(-1461.718 -1625.846)" fill="#272c50"/>
        <path id="Trazado_1050218" data-name="Trazado 1050218" d="M3559.485,1809.223a2.139,2.139,0,0,1,3.022,1.962c.1,1.852-2.587,2.75-3.74,1.408a2.1,2.1,0,0,1,.717-3.37" transform="translate(-3210.304 -1632.169)" fill="#707ac2"/>
        <path id="Trazado_1050219" data-name="Trazado 1050219" d="M3644.518,1808.889a2.064,2.064,0,0,1,2.406,2.49,2.09,2.09,0,0,1-3.731.779c-1.016-1.17-.044-2.952,1.324-3.269" transform="translate(-3286.616 -1631.985)" fill="#7e84c5"/>
        <path id="Trazado_1050220" data-name="Trazado 1050220" d="M3728.927,1808.776a2.112,2.112,0,0,1,2.8,2.041,2.116,2.116,0,1,1-2.8-2.041" transform="translate(-3363.102 -1631.824)" fill="#777dc1"/>
        <path id="Trazado_1050221" data-name="Trazado 1050221" d="M3811.783,1808.72a2.139,2.139,0,0,1,2.561,2.539,2.128,2.128,0,1,1-2.561-2.539" transform="translate(-3437.634 -1631.816)" fill="#7279c3"/>
        <path id="Trazado_1050222" data-name="Trazado 1050222" d="M2715.27,1809.879a46.227,46.227,0,0,1,.268,7.4c-.233,6.934-.132,13.881-.453,20.815a9.693,9.693,0,0,1-.4-2.833c.295-8.456-.07-16.939.59-25.382" transform="translate(-2449.26 -1632.926)" fill="#595987"/>
        <path id="Trazado_1050223" data-name="Trazado 1050223" d="M2023.526,1815.553c.062-.251.18-.748.238-.994a26.84,26.84,0,0,1,2.763.937c-1-.018-2,.026-3,.057" transform="translate(-1825.685 -1637.149)" fill="#3c3028"/>
        <path id="Trazado_1050224" data-name="Trazado 1050224" d="M1691.97,1869.275a26.245,26.245,0,0,1,11.553-5.073,29.336,29.336,0,0,0,1.852,3.146,16.516,16.516,0,0,0,2.9-3.379,24.691,24.691,0,0,1,23.6,25.338,26.1,26.1,0,0,1-6.718,16.53,42.1,42.1,0,0,1-5.209-.291c3.075-2.327,5.847-5.456,6.767-9.288l-1.575-.158a17.163,17.163,0,0,1-9.833,9.794c-4.193-.233-8.395-.114-12.592-.128-4.549.057-9.1-.132-13.657.048a25.277,25.277,0,0,1-6.555-14.29,24.531,24.531,0,0,1,9.468-22.249m.44,4.026c-3.6,3.4-6.428,8.179-6.3,13.252.466,0,.933,0,1.4.009.8-4.167,2.257-8.438,5.535-11.32,3.207-3.251,7.809-4.576,12.266-4.791-.048-.55-.1-1.1-.141-1.641-4.7-.532-9.12,1.755-12.763,4.492" transform="translate(-1517.843 -1681.728)" fill="#c8c6a0"/>
        <path id="Trazado_1050225" data-name="Trazado 1050225" d="M1899.146,1864.1a33.042,33.042,0,0,1,4.756-.233,16.524,16.524,0,0,1-2.9,3.379,29.316,29.316,0,0,1-1.852-3.146" transform="translate(-1713.466 -1681.628)" fill="#fbfbf4"/>
        <path id="Trazado_1050226" data-name="Trazado 1050226" d="M3559.752,1892.406a2.082,2.082,0,0,1,3.049,2.125,2.1,2.1,0,1,1-3.049-2.125" transform="translate(-3210.694 -1707.146)" fill="#7e84c9"/>
        <path id="Trazado_1050227" data-name="Trazado 1050227" d="M3644.819,1892.323a2,2,0,0,1,2.851,1.355,2.1,2.1,0,0,1-2.886,2.472,2.132,2.132,0,0,1,.035-3.828" transform="translate(-3287.371 -1707.108)" fill="#757dc1"/>
        <path id="Trazado_1050228" data-name="Trazado 1050228" d="M3727.537,1892.151a2.136,2.136,0,0,1,2.93.805c.968,1.549-.915,3.841-2.614,3.049a2.152,2.152,0,0,1-.317-3.854" transform="translate(-3362.148 -1706.887)" fill="#7d80ca"/>
        <path id="Trazado_1050229" data-name="Trazado 1050229" d="M3811.348,1892.64a2.086,2.086,0,0,1,2.807.955c.854,1.6-1.162,3.749-2.8,2.847a2.135,2.135,0,0,1-.009-3.8" transform="translate(-3437.665 -1707.412)" fill="#7d84c4"/>
        <path id="Trazado_1050230" data-name="Trazado 1050230" d="M1727.3,1917.246c3.643-2.737,8.065-5.024,12.764-4.492.044.546.092,1.091.141,1.641-4.457.215-9.059,1.54-12.266,4.791-3.278,2.882-4.734,7.154-5.535,11.32-.471,0-.937,0-1.4-.009-.128-5.073,2.7-9.851,6.3-13.252" transform="translate(-1552.731 -1725.673)" fill="#fefefb"/>
        <path id="Trazado_1050231" data-name="Trazado 1050231" d="M2542.494,1918.824a47.071,47.071,0,0,1,.471,8.553c-.035,2.719.171,5.491-.59,8.139-.053-5.566.123-11.131.119-16.692" transform="translate(-2293.797 -1731.22)" fill="#4258ca"/>
        <path id="Trazado_1050232" data-name="Trazado 1050232" d="M703.912,2006.554c7.066-.048,14.127-.031,21.193-.07.141,3.089.312,6.252-.959,9.156-.854,2.358-1.9,4.646-2.877,6.956-.018-.189-.048-.568-.066-.757-5.733-.242-11.483.048-17.22-.277-.075-5-.136-10-.07-15.007m3.225,6.3c0,2.891-.026,5.781-.1,8.672,4.7-.176,9.411-.009,14.119-.11-.084-2.869-.106-5.733-.044-8.6-4.655.022-9.314.009-13.973.035" transform="translate(-635.065 -1810.309)" fill="#7a82c5"/>
        <path id="Trazado_1050233" data-name="Trazado 1050233" d="M736.222,2071.364c4.659-.026,9.318-.013,13.973-.035-.062,2.864-.04,5.728.044,8.6-4.708.1-9.415-.066-14.119.11.075-2.891.1-5.781.1-8.672" transform="translate(-664.15 -1868.814)" fill="#d9deee"/>
        <path id="Trazado_1050234" data-name="Trazado 1050234" d="M2475.5,2080.684a8.53,8.53,0,0,1,6-1.126c4.3.66,7.436,5.5,5.957,9.679,4.321.158,8.645.048,12.97.048a4.213,4.213,0,0,1,2.657.625,10.178,10.178,0,0,1,1.337,1.975c-.545,2.86-1.478,5.623-2.081,8.465-.559,2.107-.748,4.369-1.791,6.313-.911,1.562-2.838,1.931-4.505,1.865-13.789-.119-27.573-.031-41.357-.031a31.02,31.02,0,0,1-4.831-.167,2.319,2.319,0,0,1-1.835-2.578,45.1,45.1,0,0,1,1.28-5.42c.7-2.609,1.316-5.24,1.989-7.858l.238-.581a13.056,13.056,0,0,1,.858-1.628,7.82,7.82,0,0,1,4-.933c4.444.057,8.883.018,13.326.044.449-3.181,1.91-6.371,4.765-8.056.334-.224.673-.436,1.021-.638m1.3,4.14c-1.038.827-.7,2.274-.774,3.432a4.151,4.151,0,0,0,3.872,1.448c.576-.519,1.161-1.03,1.76-1.522a8.361,8.361,0,0,0,.062-2.728c-.686-2.02-3.608-1.993-4.919-.629m-20.978,8.438c.066.563.15,1.126.246,1.694,14.862-.057,29.72.044,44.582-.044.088-.532.18-1.056.286-1.579-4.109-.172-8.223-.053-12.336-.093-10.925.075-21.853-.031-32.778.022m-3.529,1.637a63.822,63.822,0,0,0-2.182,9.134c-.291.805.875.656,1.324.849,1.047-3.37,1.852-6.815,2.578-10.269-.356-.986-1.535-.537-1.72.286m.656,9.842c.035.541.071,1.087.115,1.632,7.721.018,15.447.009,23.173.018,7.211-.088,14.431.15,21.638-.136-.018-.378-.048-1.135-.062-1.513-4.69-.114-9.375-.048-14.061-.053-10.269.035-20.538-.115-30.8.053" transform="translate(-2208.651 -1876.154)" fill="#bcbecd"/>
        <path id="Trazado_1050235" data-name="Trazado 1050235" d="M1467.972,2098.689a61.2,61.2,0,0,1,.458,6.894c-.22,2.336-.1,4.681-.194,7.026l-.246.638c.022-4.853-.352-9.71-.018-14.559" transform="translate(-1324.322 -1893.499)" fill="#b9a088"/>
        <path id="Trazado_1050236" data-name="Trazado 1050236" d="M2735.434,2125.385c1.311-1.364,4.232-1.39,4.919.629a8.361,8.361,0,0,1-.062,2.728c-.6.493-1.183,1-1.76,1.522a4.151,4.151,0,0,1-3.872-1.447c.07-1.157-.264-2.6.774-3.432" transform="translate(-2467.291 -1916.715)" fill="#f8b426"/>
        <path id="Trazado_1050237" data-name="Trazado 1050237" d="M2.685,2159.19c6.644-.04,13.291.022,19.935-.04,5.183.071,10.37-.088,15.553.022,3.427.031,6.855.092,10.282-.044,4.976-.172,9.956-.018,14.932.07,1.843.022,3.687-.013,5.53.013,5.737.325,11.488.035,17.22.277.018.189.048.568.066.757-.114.277-.224.563-.33.849q-4.184.066-8.368.084a21.528,21.528,0,0,1,6.573,4.523c-.827,2.2-1.874,4.316-2.64,6.542-.933-2.349-2.653-4.624-5.271-5.135a7.39,7.39,0,1,0-2.16,14.519,9.813,9.813,0,0,0,4.369-1.21c-.942,2.446-1.852,4.91-2.759,7.374a14.333,14.333,0,0,1-12.156-4.109,14.074,14.074,0,0,1-3.819-11.373,14.352,14.352,0,0,1,9.063-11.123c-7-.066-14.013-.009-21.017-.017a14.276,14.276,0,0,1,9.059,10.26c1.4,6.481-2.75,13.5-8.953,15.667-5.464,2.226-12.068-.211-15.368-4.945a13.734,13.734,0,0,1-1.716-12.781,15.137,15.137,0,0,1,8.359-8.24c-7.013.031-14.031-.022-21.044.053a13.855,13.855,0,0,1,8.368,8.131c2.486,6.12-.524,13.687-6.248,16.815a21.8,21.8,0,0,1-3.933,1.632A13.8,13.8,0,0,1,.745,2169.789a13.623,13.623,0,0,1,8.8-8.658c-2.121-.062-4.254.163-6.366-.066-.959-.251-.647-1.2-.5-1.874m10.264,7.857a7.389,7.389,0,0,0,1.681,14.568,7.4,7.4,0,0,0,4.193-13.533,7.477,7.477,0,0,0-5.874-1.034m29.918.013a7.348,7.348,0,1,0,8.835,6.1c-.33-4.184-4.848-7.136-8.835-6.1" transform="translate(0 -1947.959)" fill="#6066b6"/>
        <path id="Trazado_1050238" data-name="Trazado 1050238" d="M3254.456,2158.766c4.686-.2,9.38.009,14.075.013,5.869.013,11.738-.013,17.607.035,8.355-.092,16.71-.176,25.065.062,3.186.053,6.366-.269,9.552-.1,3.722.128,7.444.062,11.167.04.554.123,1.434-.189,1.773.422.471.4.15,1.557-.5,1.513-4.69.216-9.393-.15-14.083.194a15.736,15.736,0,0,1,5.57,3.691,13.543,13.543,0,0,1,1.777,15.984,14.34,14.34,0,0,1-9.191,6.709,13.463,13.463,0,0,1-9.538-1.795c-5.75-3.41-8.373-11.435-5.24-17.454a14.123,14.123,0,0,1,7.99-7.281c-7.009.035-14.017-.026-21.026.009a14.917,14.917,0,0,1,7.844,7.013,13.588,13.588,0,0,1-1.267,14,14.03,14.03,0,0,1-8.192,5.482c-3.59.915-7.4-.295-10.4-2.306-5.6-3.788-7.567-12.046-4.061-17.88a13.811,13.811,0,0,1,7.651-6.314c-7.281-.128-14.567.105-21.844-.123a15.977,15.977,0,0,1,6.005,3.568,13.51,13.51,0,0,1,3.916,11.179,14.73,14.73,0,0,1-5.711,9.556c-.576-1.857-1.179-3.709-1.764-5.561a7.583,7.583,0,0,0,.576-10.379,9.291,9.291,0,0,0-4.941-2.6c-1.109-2.495-1.83-5.134-2.816-7.677m29.583,8.029a7.865,7.865,0,0,0-5.064,5.61,7.346,7.346,0,1,0,5.064-5.61m29.544.048a7.362,7.362,0,1,0,4.659,13.96,7.362,7.362,0,0,0-4.659-13.96" transform="translate(-2936.266 -1947.623)" fill="#6065b5"/>
        <path id="Trazado_1050239" data-name="Trazado 1050239" d="M1472.155,2169.2c.722,3.951.374,7.99.383,11.985-.106,0-.317.013-.427.022,0-1.663-.057-3.326-.15-4.98.1-2.345-.026-4.69.194-7.026" transform="translate(-1328.047 -1957.12)" fill="#826e68"/>
        <path id="Trazado_1050240" data-name="Trazado 1050240" d="M167.649,2180.372c7.013-.075,14.031-.022,21.044-.053a15.137,15.137,0,0,0-8.359,8.241,13.734,13.734,0,0,0,1.716,12.781c3.3,4.734,9.9,7.171,15.368,4.945,6.2-2.169,10.357-9.187,8.953-15.667a14.275,14.275,0,0,0-9.059-10.26c7,.009,14.013-.048,21.017.018a14.351,14.351,0,0,0-9.063,11.122,14.074,14.074,0,0,0,3.819,11.373,14.334,14.334,0,0,0,12.156,4.109c-.035.092-.11.281-.145.378-.022.049-.066.15-.088.2-19.482-.167-38.964.071-58.445-.088-.18-.127-.541-.391-.726-.519a21.794,21.794,0,0,0,3.933-1.632c5.724-3.128,8.733-10.7,6.248-16.815a13.855,13.855,0,0,0-8.368-8.131" transform="translate(-149.622 -1967.148)" fill="#d8ddef"/>
        <path id="Trazado_1050241" data-name="Trazado 1050241" d="M792.731,2180.043q4.184-.02,8.368-.084c-.59,1.536-1.17,3.08-1.8,4.606a21.523,21.523,0,0,0-6.573-4.523" transform="translate(-715.225 -1966.823)" fill="#d3dcea"/>
        <path id="Trazado_1050242" data-name="Trazado 1050242" d="M1957.5,2202.4a17.162,17.162,0,0,0,9.833-9.794l1.575.158c-.92,3.832-3.692,6.96-6.767,9.288a20.925,20.925,0,0,1-10.212,3.471c-.8.163-1.659-1.131-.823-1.557,2.1-.621,4.351-.687,6.393-1.566" transform="translate(-1760.04 -1978.232)" fill="#fdfeff"/>
        <path id="Trazado_1050243" data-name="Trazado 1050243" d="M2237.742,2206.639c8-.062,16,.009,24-.04l-.238.581c-7.955,0-15.909-.057-23.864.018Z" transform="translate(-2018.861 -1990.859)" fill="#2c2531"/>
        <path id="Trazado_1050244" data-name="Trazado 1050244" d="M2988.961,2206.422c6.3.04,12.592-.062,18.888.031a3.215,3.215,0,0,1,2.917,2.1c.436.968.026,2.033-.18,3.014-3.665,12.64-7.259,25.294-10.885,37.943-.308,1.008-.612,2.015-.88,3.036-1.839,6.815-3.925,13.56-5.794,20.366-.462,1.615-.986,3.216-1.452,4.831-2.16-.867-4.316-1.755-6.533-2.455,5.649-20.155,11.421-40.275,17.146-60.407-5.1.009-10.207-.022-15.307.009.6-2.842,1.536-5.6,2.081-8.465" transform="translate(-2693.192 -1990.69)" fill="#262c53"/>
        <path id="Trazado_1050245" data-name="Trazado 1050245" d="M2528.021,2220.356c10.925-.053,21.853.053,32.778-.022,4.114.04,8.227-.079,12.337.093-.105.523-.2,1.047-.286,1.579-14.862.088-29.72-.013-44.582.044-.1-.567-.18-1.131-.246-1.694" transform="translate(-2280.855 -2003.248)" fill="#fffefe"/>
        <path id="Trazado_1050246" data-name="Trazado 1050246" d="M816.075,2232.81c-.057-1.091,1.307-.7,1.98-.739,1.183,18.237.88,36.531.55,54.789-16.926,7.673-33.891,15.275-50.653,23.31a2.517,2.517,0,0,1-2.085.07c.04-.708.088-1.54.9-1.777,12.851-6.111,25.817-11.976,38.721-17.964,3.731-1.606,5.438-5.57,6.727-9.147,3.225-8.914,3.92-18.457,4.228-27.85.251-6.9-.053-13.806-.365-20.692" transform="translate(-690.987 -2013.805)" fill="#d27918"/>
        <path id="Trazado_1050247" data-name="Trazado 1050247" d="M2471.37,2229.508c.185-.823,1.364-1.271,1.72-.286-.726,3.454-1.531,6.9-2.578,10.269-.449-.194-1.615-.044-1.324-.849a63.85,63.85,0,0,1,2.182-9.134" transform="translate(-2227.733 -2010.763)" fill="#fdffff"/>
        <path id="Trazado_1050248" data-name="Trazado 1050248" d="M80.326,2238.989a7.363,7.363,0,0,1,8.716,9.591,7.577,7.577,0,0,1-7.035,4.976,7.389,7.389,0,0,1-1.681-14.567" transform="translate(-67.377 -2019.901)" fill="#daddf0"/>
        <path id="Trazado_1050249" data-name="Trazado 1050249" d="M386.088,2239.049c3.986-1.038,8.5,1.914,8.835,6.1a7.286,7.286,0,1,1-8.835-6.1" transform="translate(-343.221 -2019.947)" fill="#d9ddf0"/>
        <path id="Trazado_1050250" data-name="Trazado 1050250" d="M683.561,2245.379a7.494,7.494,0,0,1,9.3-6.481c2.618.51,4.338,2.785,5.271,5.135-1.056,2.715-1.852,5.521-3.062,8.175a9.816,9.816,0,0,1-4.369,1.21,7.435,7.435,0,0,1-7.136-8.038" transform="translate(-616.69 -2019.749)" fill="#d9ddf0"/>
        <path id="Trazado_1050251" data-name="Trazado 1050251" d="M3283.256,2238.1a9.291,9.291,0,0,1,4.941,2.6,7.582,7.582,0,0,1-.576,10.379c-1.346-4.36-2.706-8.729-4.365-12.983" transform="translate(-2962.25 -2019.279)" fill="#d8deed"/>
        <path id="Trazado_1050252" data-name="Trazado 1050252" d="M3508.711,2238.432a7.392,7.392,0,1,1-5.064,5.609,7.864,7.864,0,0,1,5.064-5.609" transform="translate(-3160.938 -2019.26)" fill="#daddf1"/>
        <path id="Trazado_1050253" data-name="Trazado 1050253" d="M3810.741,2238.687a7.362,7.362,0,0,1,4.659,13.96,7.362,7.362,0,1,1-4.659-13.96" transform="translate(-3433.424 -2019.466)" fill="#daddf0"/>
        <path id="Trazado_1050254" data-name="Trazado 1050254" d="M1373.421,2241.707l.246-.638c.092,1.654.149,3.317.149,4.98-3.6,0-7.2.031-10.8-.022.686-.849,1.83-.607,2.785-.634,2.517.088,5.033.11,7.55.026a29.046,29.046,0,0,1,.07-3.713" transform="translate(-1229.753 -2021.959)" fill="#eab652"/>
        <path id="Trazado_1050255" data-name="Trazado 1050255" d="M1655.045,2269.689c.462.788.95,1.566,1.456,2.332q-.9-.1-1.8-.185c.11-.721.224-1.434.339-2.147" transform="translate(-1492.925 -2047.78)" fill="#9a816d"/>
        <path id="Trazado_1050256" data-name="Trazado 1050256" d="M1751.186,2289.487c4.554-.18,9.107.009,13.657-.048,4.2.013,8.4-.105,12.592.128-2.041.88-4.29.946-6.393,1.566-.836.427.022,1.72.823,1.557a20.923,20.923,0,0,0,10.212-3.471,42.1,42.1,0,0,0,5.209.29,24.9,24.9,0,0,1-15.425,7.774,24.3,24.3,0,0,1-20.674-7.8" transform="translate(-1579.972 -2065.401)" fill="#809acd"/>
        <path id="Trazado_1050257" data-name="Trazado 1050257" d="M1998.762,2292.639c6.256.083,12.512-.009,18.769.026a45.084,45.084,0,0,0-1.28,5.421,2.319,2.319,0,0,0,1.834,2.578,31.054,31.054,0,0,0,4.831.167c13.784,0,27.568-.088,41.357.031,1.667.066,3.594-.3,4.505-1.865,1.042-1.945,1.232-4.206,1.791-6.313,5.1-.031,10.2,0,15.307-.009-5.724,20.133-11.5,40.252-17.146,60.407-5.249-1.817-10.573-3.414-15.826-5.227,3.119-.37,6.265-.053,9.393-.317.035-.6.074-1.192.114-1.782-15.214-.216-30.432.04-45.647-.066a16.461,16.461,0,0,0-4.083.207c-.317.515-.612,1.157-.106,1.676a7.617,7.617,0,0,0,1.949.242c8.663-.172,17.326-.048,25.989-.159,1.456-.035,2.908.1,4.364.2a7.616,7.616,0,0,0-2.34,3.4c-.145.576-.268,1.162-.387,1.755-8.9-.123-17.8-.066-26.7-.057a37.174,37.174,0,0,0-4.694.264q-.086.818-.158,1.65c10.792.339,21.6.026,32.4.128a11.96,11.96,0,0,0,5.636,4.061c-2.072-.281-3.942-1.258-5.9-1.927a6.319,6.319,0,0,0-4.694.141,6.052,6.052,0,0,0-3.014,7.4c-7.119-.062-14.237-.031-21.352-.031a43.64,43.64,0,0,0-5.522.1,5.192,5.192,0,0,0-.334,1.9c9.495.053,18.989,0,28.484-.031a22.545,22.545,0,0,0,2.917,2.134c-.312.18-.616.369-.92.559a28.47,28.47,0,0,1-6.591.3c-6.754-.053-13.507.022-20.26,0a26.44,26.44,0,0,0-4.382.123c-.871.211-.55,1.258-.664,1.9,9.8-.052,19.6.11,29.4-.149a6.7,6.7,0,0,0,.163,7.229c1.28,1.791,3.353,2.715,5.24,3.709-1.223,1.364-2.323,3.084-2.024,5.007.352,3.128,3.04,5.385,5.768,6.578a17.123,17.123,0,0,1,2.627,1.676q-39.076.046-78.151,0c4.554-15.936,9.055-31.88,13.626-47.807,5.231-18.408,10.6-36.777,15.7-55.22m4.932,14.8c-1.1,4-2.187,8.016-3.163,12.051,4.391.114,8.795.04,13.19.044,1.245-3.96,2.257-7.994,3.3-12.016-4.439-.136-8.883-.079-13.322-.079m18.681.255c-.264.788-.171,2.041.986,1.874,15.1.062,30.212-.018,45.321.027a15.007,15.007,0,0,0,3.762-.242c.018-.546.044-1.091.07-1.628-.541-.057-1.082-.1-1.619-.128-10.273.079-20.551-.048-30.828-.009-5.9.074-11.8-.163-17.691.105m-1.606,7.022c12.6.053,25.2,0,37.793.009.95.075.739-1.157,1.012-1.738a9.566,9.566,0,0,0-2.781-.308c-11.575.149-23.156-.027-34.727.163-1.126-.141-1.478.955-1.3,1.874m-3.04,10.806c-.018.581-.678,1.461.018,1.861a17.831,17.831,0,0,0,3.845.224c14.075-.088,28.149-.066,42.228-.115a10.655,10.655,0,0,0,3.216-.251,3.322,3.322,0,0,0,.255-1.747c-16.521-.04-33.042.013-49.562.026m-7.484,1.073c-3.907-.057-7.818-.11-11.725-.083-1.179,4.039-2.165,8.135-3.22,12.209,4.4.185,8.817.088,13.225.044.9-3.177,1.7-6.384,2.468-9.6.875-.858,3.308-1.716,2.011-3.185-.809-1.012-2.006.084-2.759.612m6.278,4.237a6.439,6.439,0,0,0-.233,1.834c6.749.132,13.5.049,20.243.062,9.666-.057,19.336.115,29-.062.163-.581.523-1.166.281-1.773a9.771,9.771,0,0,0-2.45-.171c-15.615.057-31.229-.11-46.844.11m-2.547,11.769c12.5-.1,25.008.088,37.512-.11,3.951.04,7.91.2,11.857-.083.088-.6.176-1.206.255-1.8-3.128-.356-6.283-.04-9.42-.141-13.067,0-26.138.04-39.206,0-1.214-.163-1.439,1.285-1,2.129m-8.28,3.164c-3.647.022-7.3-.053-10.946-.07-.493.1-1.4-.2-1.553.475-1.2,3.88-2.169,7.836-3.238,11.756,4.422.4,8.879.092,13.313.18,1.012-3.071,1.5-6.3,2.706-9.31.735-.7,1.725-1.179,2.257-2.055.414-.862-.629-1.381-1.126-1.861q-.726.409-1.412.884m-20,28.655c4.439.247,8.9.242,13.349.106,1.131-3.951,2.261-7.911,3.181-11.919-4.443-.088-8.887.04-13.327-.009-1.227,3.894-2.142,7.88-3.2,11.822" transform="translate(-1776.881 -2068.487)" fill="#fff"/>
        <path id="Trazado_1050258" data-name="Trazado 1050258" d="M1901.1,2349.437a31.289,31.289,0,0,0,24.546-9.323c-2.318,8.113-4.857,16.16-7.013,24.322-2.481.119-4.963.044-7.444.018-.515-.669-1.078-1.293-1.628-1.918-.035-.6-.053-1.184-.075-1.773-.18-.123-.55-.374-.735-.5-1.839-1.06-4.123-.453-6.142-.7-.044-1.887-.4-4.14-2.468-4.809.26-1.786.59-3.555.959-5.319" transform="translate(-1714.359 -2111.32)" fill="#4d59b3"/>
        <path id="Trazado_1050259" data-name="Trazado 1050259" d="M2498.635,2337.252c10.264-.167,20.533-.018,30.8-.053,4.686,0,9.371-.062,14.061.053.013.378.044,1.135.062,1.514-7.207.286-14.426.048-21.637.136-7.726-.009-15.452,0-23.173-.018-.044-.545-.079-1.091-.115-1.632" transform="translate(-2254.342 -2108.665)" fill="#fdfeff"/>
        <path id="Trazado_1050260" data-name="Trazado 1050260" d="M1829.576,2427.6c.383-1.751.752-3.507,1.267-5.223.6.2,1.205.383,1.822.559q-.5,2.521-1.034,5.033c-.686-.141-1.368-.273-2.055-.369" transform="translate(-1650.698 -2185.537)" fill="#afb7be"/>
        <path id="Trazado_1050261" data-name="Trazado 1050261" d="M1851.625,2428.089c.955.229,1.923.387,2.9.528q-.482,2.547-.867,5.121c-1.025-.211-2.046-.414-3.066-.616q.534-2.514,1.034-5.033" transform="translate(-1669.658 -2190.694)" fill="#d9dadc"/>
        <path id="Trazado_1050262" data-name="Trazado 1050262" d="M1882.823,2433.489c.62.079,1.245.145,1.87.194-.37,1.764-.7,3.533-.959,5.319-.594-.15-1.188-.273-1.778-.392q.383-2.574.867-5.121" transform="translate(-1697.956 -2195.566)" fill="#b1b2ba"/>
        <path id="Trazado_1050263" data-name="Trazado 1050263" d="M2290.66,2443.954c4.439,0,8.883-.057,13.322.079-1.038,4.021-2.05,8.056-3.3,12.015-4.4,0-8.8.071-13.19-.044.977-4.034,2.059-8.047,3.164-12.051m1.4,1.751c-.774,2.877-1.628,5.733-2.4,8.615,3.238,0,6.472-.062,9.71-.035.823-2.846,1.615-5.706,2.416-8.562-3.243-.053-6.485.031-9.728-.018" transform="translate(-2063.846 -2204.997)" fill="#4759b0"/>
        <path id="Trazado_1050264" data-name="Trazado 1050264" d="M2509.79,2445.459c5.887-.268,11.8-.031,17.691-.106,10.278-.04,20.555.088,30.829.009.537.026,1.078.07,1.619.127-.027.537-.053,1.082-.07,1.628a15,15,0,0,1-3.762.242c-15.108-.044-30.217.035-45.321-.026-1.157.167-1.25-1.087-.986-1.874" transform="translate(-2264.296 -2206.247)" fill="#b6bccf"/>
        <path id="Trazado_1050265" data-name="Trazado 1050265" d="M127.29,2456.979c1.491.04,2.983.071,4.474.1,19.482.158,38.964-.079,58.445.088-.708,2.024-1.514,4.017-2.125,6.072-7.229.22-14.462.074-21.69.127-13.041-.026-26.081-.009-39.126-.013,0-2.125,0-4.25.022-6.375" transform="translate(-114.825 -2216.759)" fill="#5e64b5"/>
        <path id="Trazado_1050266" data-name="Trazado 1050266" d="M2312.033,2461.968c3.242.048,6.485-.035,9.728.018-.8,2.855-1.593,5.715-2.416,8.562-3.238-.026-6.472.035-9.71.035.77-2.882,1.624-5.737,2.4-8.615" transform="translate(-2083.821 -2221.26)" fill="#fefefe"/>
        <path id="Trazado_1050267" data-name="Trazado 1050267" d="M3355.211,2457.789c18.435.07,36.874.15,55.308.026-.088,2.077-.115,4.158-.119,6.239-17.744.1-35.492-.022-53.236.057-.687-2.1-1.364-4.2-1.954-6.323" transform="translate(-3027.17 -2217.49)" fill="#5d64b4"/>
        <path id="Trazado_1050268" data-name="Trazado 1050268" d="M1777.3,2478.982c.427-2,1.9-4.034,4.206-3.643.686.1,1.368.229,2.055.37,1.021.2,2.041.4,3.066.616.59.119,1.184.242,1.778.392,2.072.669,2.424,2.921,2.468,4.809,2.019.246,4.3-.361,6.142.7-2.085-.708-4.32-.479-6.485-.62-.11.589-.216,1.188-.321,1.786a108.018,108.018,0,0,0-13.547.827c-.119-.308-.242-.612-.365-.911.383-1.43.682-2.882,1-4.325" transform="translate(-1602.627 -2233.28)" fill="#242a4f"/>
        <path id="Trazado_1050269" data-name="Trazado 1050269" d="M2494.083,2499.6c-.18-.919.171-2.015,1.3-1.874,11.571-.189,23.151-.013,34.727-.163a9.574,9.574,0,0,1,2.781.308c-.273.581-.062,1.813-1.012,1.738-12.6-.009-25.2.044-37.793-.009" transform="translate(-2250.195 -2253.37)" fill="#b8bdce"/>
        <path id="Trazado_1050270" data-name="Trazado 1050270" d="M1448.8,2514.695c3.753-1.2,7.73-1.245,11.615-1.645-.321,1.443-.62,2.9-1,4.325a26.457,26.457,0,0,0-8.016.875c.075.387.154.779.233,1.17,2.728-.291,5.438-.722,8.148-1.135a108.022,108.022,0,0,1,13.547-.827c.105-.6.211-1.2.321-1.786,2.165.141,4.4-.088,6.485.62.185.123.554.374.735.5-.066.55-.132,1.108-.193,1.667a12.035,12.035,0,0,0-6.784-1.078c1.738,1.175,4.131.761,5.764,2.2a4.8,4.8,0,0,1,1.337,6.191,6.551,6.551,0,0,1-4.62,2.934c-3.577.673-7.22.889-10.81,1.474-.009.453-.022.915-.031,1.377,3.216.136,6.349-.682,9.53-1,1.725-.29,3.194.972,4.122,2.292a5.7,5.7,0,0,1,.361,5.583c-1.205,1.76-3.331,2.592-5.324,3.084-2.767.629-5.6.946-8.342,1.694-.026.374-.083,1.122-.114,1.5,2.424.1,4.69-.915,7.083-1.034,1.043-.145,1.817.7,2.415,1.434a5.09,5.09,0,0,1-1.395,7.387c-2.952,1.927-6.63,1.685-9.811,2.97.154.449.308.9.466,1.351,1.588-.229,3.137-.726,4.739-.854a4.113,4.113,0,0,1,2.4,3.44c.083,2.191-1.487,3.933-2.877,5.438a44.759,44.759,0,0,1-5.557,1.6,84.01,84.01,0,0,1-15.821,1.909l-.009.216-.026.471c-.04-.185-.123-.554-.163-.735-1.135-.127-2.279-.176-3.414-.22.295.6.594,1.2.9,1.808-.475-.787-.955-1.575-1.408-2.367a8.929,8.929,0,0,0-3.9,1.461,68.932,68.932,0,0,1-10.581-16.028c-1.962-4.531-3.595-9.336-3.731-14.312.9-.788,1.821-1.553,2.7-2.367,3.594-4.048,6.78-8.447,10.357-12.517,1.073-1.285,2.261-2.473,3.441-3.66,2.2-2.037,4.334-4.374,7.229-5.4" transform="translate(-1285.741 -2267.347)" fill="#f4bb9d"/>
        <path id="Trazado_1050271" data-name="Trazado 1050271" d="M1840.582,2551.3c.022.59.04,1.175.075,1.773.55.625,1.113,1.25,1.628,1.918a15.645,15.645,0,0,1,.677,2.283,5.977,5.977,0,0,1-4.95,6.709c1.667,1.844,3.6,3.925,3.251,6.635.22,3.5-3.124,5.671-6.072,6.582.409.581.832,1.166,1.223,1.769.352.651.7,1.311,1.016,1.989a6.271,6.271,0,0,1-1.311,5.544c-1.227,1.632-3.313,2.032-5.02,2.952.66,1.452,1.755,2.8,1.707,4.479.075,1.72-1.153,3.08-1.945,4.5q-1.188.449-2.363.915c1.39-1.5,2.961-3.247,2.877-5.438a4.114,4.114,0,0,0-2.4-3.441c-1.6.128-3.15.625-4.739.854-.158-.453-.312-.9-.466-1.351,3.181-1.285,6.859-1.043,9.811-2.97a5.09,5.09,0,0,0,1.395-7.387c-.6-.735-1.373-1.579-2.416-1.434-2.393.119-4.659,1.131-7.083,1.034.031-.374.088-1.122.114-1.5,2.741-.748,5.574-1.065,8.342-1.694,1.993-.493,4.118-1.324,5.324-3.084a5.7,5.7,0,0,0-.361-5.583c-.928-1.32-2.4-2.583-4.122-2.292-3.181.317-6.313,1.135-9.53,1,.009-.462.022-.924.031-1.377,3.59-.585,7.233-.8,10.81-1.474a6.552,6.552,0,0,0,4.62-2.935,4.8,4.8,0,0,0-1.337-6.19c-1.632-1.439-4.026-1.025-5.764-2.2a12.036,12.036,0,0,1,6.784,1.078c.062-.559.128-1.117.194-1.667" transform="translate(-1645.46 -2301.857)" fill="#df8860"/>
        <path id="Trazado_1050272" data-name="Trazado 1050272" d="M1694.306,2558.057a26.45,26.45,0,0,1,8.016-.875c.123.3.246.6.365.911-2.71.414-5.42.845-8.148,1.135-.079-.392-.158-.783-.233-1.17" transform="translate(-1528.653 -2307.155)" fill="#dc8766"/>
        <path id="Trazado_1050273" data-name="Trazado 1050273" d="M1559.234,2584.509c.946.013,1.892.03,2.838.057-1.179,1.188-2.367,2.375-3.441,3.66a9.273,9.273,0,0,0,.6-3.717" transform="translate(-1406.243 -2331.821)" fill="#222b5b"/>
        <path id="Trazado_1050274" data-name="Trazado 1050274" d="M1948.361,2612.409c2.041.018,4.078.031,6.12.057-.647,2.754-1.6,5.421-2.35,8.148-1.285,4.3-2.371,8.667-3.718,12.957-2.327.013-4.655-.044-6.978-.211.1.185.286.559.378.744-.391-.6-.814-1.188-1.223-1.769,2.948-.911,6.291-3.08,6.072-6.582.352-2.71-1.584-4.792-3.251-6.635a5.977,5.977,0,0,0,4.95-6.709" transform="translate(-1750.859 -2356.993)" fill="#4f5ab5"/>
        <path id="Trazado_1050275" data-name="Trazado 1050275" d="M2460.632,2628.637c16.521-.013,33.042-.066,49.562-.026a3.329,3.329,0,0,1-.255,1.747,10.665,10.665,0,0,1-3.216.251c-14.079.048-28.153.026-42.228.114a17.783,17.783,0,0,1-3.845-.224c-.7-.4-.035-1.28-.018-1.861" transform="translate(-2219.784 -2371.597)" fill="#b8bacf"/>
        <path id="Trazado_1050276" data-name="Trazado 1050276" d="M2353.686,2630.53c.752-.528,1.949-1.624,2.759-.612,1.3,1.469-1.135,2.327-2.01,3.185a25.718,25.718,0,0,0-2.125,1.844l-.255.246c0-.246.013-.739.018-.985-.665.277-1.324.55-1.98.84a5.622,5.622,0,0,0,1.5-2.772l.026-.022c.682-.581,1.364-1.157,2.063-1.725" transform="translate(-2120.322 -2372.417)" fill="#d63b3d"/>
        <path id="Trazado_1050277" data-name="Trazado 1050277" d="M2233.99,2651.284c1.056-4.074,2.042-8.17,3.221-12.209,3.907-.026,7.818.026,11.725.083-.7.568-1.382,1.144-2.063,1.725q-4.111-.046-8.223.013-1.261,4.369-2.521,8.747c3.243-.04,6.481-.035,9.723-.084a56.279,56.279,0,0,1,1.707-5.983,25.712,25.712,0,0,1,2.125-1.843c-.77,3.212-1.566,6.419-2.468,9.6-4.408.044-8.821.141-13.225-.044" transform="translate(-2015.572 -2381.044)" fill="#4958b1"/>
        <path id="Trazado_1050278" data-name="Trazado 1050278" d="M3125.981,2650.23c.269-1.021.572-2.028.88-3.036-.013.805.017,1.615-.013,2.424-.22.154-.651.458-.867.612" transform="translate(-2820.352 -2388.377)" fill="#e4ad4c"/>
        <path id="Trazado_1050279" data-name="Trazado 1050279" d="M2255.861,2666.194q1.26-4.375,2.521-8.747,4.111-.066,8.223-.013l-.026.022c-1.72,1.3-3.031,3.04-4.637,4.461-1.144-.436-1.492-1.892-2.552-2.495-.656.273-1.549.841-1.474,1.65a23.708,23.708,0,0,0,3.445,4.668c2.063-1.6,3.7-3.665,5.676-5.368l.255-.246a56.176,56.176,0,0,0-1.707,5.984c-3.243.048-6.481.044-9.723.083" transform="translate(-2035.304 -2397.596)" fill="#f9fcff"/>
        <path id="Trazado_1050280" data-name="Trazado 1050280" d="M2280.86,2662.32c1.606-1.421,2.917-3.159,4.637-4.461a5.621,5.621,0,0,1-1.5,2.772c.656-.29,1.315-.563,1.98-.84,0,.246-.013.739-.018.985-1.975,1.7-3.612,3.766-5.676,5.368a23.71,23.71,0,0,1-3.445-4.668c-.074-.81.819-1.377,1.474-1.65,1.06.6,1.408,2.059,2.552,2.495" transform="translate(-2054.223 -2397.999)" fill="#c6292a"/>
        <path id="Trazado_1050281" data-name="Trazado 1050281" d="M1339.076,2681.5c.1-2.446-.057-4.976.854-7.3.062,3.331-.29,6.652-.541,9.97a8.167,8.167,0,0,1-.312-2.667" transform="translate(-1208.146 -2412.737)" fill="#c7a36b"/>
        <path id="Trazado_1050282" data-name="Trazado 1050282" d="M2448.864,2682.244c15.615-.22,31.229-.053,46.843-.11a9.77,9.77,0,0,1,2.45.172c.242.607-.119,1.192-.281,1.773-9.666.176-19.337,0-29,.062-6.745-.013-13.494.07-20.243-.062a6.432,6.432,0,0,1,.233-1.835" transform="translate(-2209.222 -2419.894)" fill="#b9bccf"/>
        <path id="Trazado_1050283" data-name="Trazado 1050283" d="M1403.741,2738.244c.849-.132,1.7-.242,2.556-.33.665.532,1.289,1.3,2.231,1.236-.88.814-1.8,1.579-2.7,2.367,0-1.047.013-2.085.026-3.128-.163,0-.488-.009-.651-.009-.365-.035-1.1-.1-1.461-.136" transform="translate(-1266.497 -2470.227)" fill="#c2791b"/>
        <path id="Trazado_1050284" data-name="Trazado 1050284" d="M2423.1,2783.7c-.44-.845-.216-2.292,1-2.129,13.067.035,26.138,0,39.206,0,3.137.1,6.292-.215,9.42.141-.079.594-.167,1.2-.255,1.8-3.947.281-7.906.123-11.857.083-12.5.2-25.008.009-37.511.11" transform="translate(-2186.002 -2509.582)" fill="#b8bcd1"/>
        <path id="Trazado_1050285" data-name="Trazado 1050285" d="M2297.167,2827.9q.686-.475,1.412-.885c.5.48,1.54,1,1.126,1.861-.532.875-1.522,1.36-2.257,2.055-.55.458-1.1.92-1.654,1.368-.792.22-1.588.409-2.385.6-.229-.233-.687-.7-.92-.933a32.275,32.275,0,0,1,2.57-2.275c.708-.59,1.381-1.223,2.107-1.791" transform="translate(-2068.352 -2550.615)" fill="#d73b39"/>
        <path id="Trazado_1050286" data-name="Trazado 1050286" d="M2182.6,2835.814c.154-.678,1.06-.378,1.553-.475,3.647.018,7.3.093,10.947.071-.726.568-1.4,1.2-2.108,1.791-2.987-.083-5.979-.07-8.966-.053-.691,2.974-1.637,5.882-2.526,8.8,3.278,0,6.56-.079,9.842.031.541-1.83.959-3.7,1.61-5.5.194-.172.581-.51.774-.677.559-.449,1.1-.911,1.654-1.368-1.2,3-1.694,6.239-2.706,9.31-4.435-.088-8.892.225-13.313-.18,1.069-3.92,2.037-7.875,3.238-11.756" transform="translate(-1966.284 -2558.127)" fill="#4958ae"/>
        <path id="Trazado_1050287" data-name="Trazado 1050287" d="M2408.294,2835.229a16.448,16.448,0,0,1,4.083-.207c15.214.105,30.433-.15,45.647.066-.04.59-.079,1.184-.115,1.782-3.128.264-6.274-.053-9.393.317a24.471,24.471,0,0,0-4.567-.365c-1.162.057-2.31.211-3.458.37-1.457-.1-2.908-.238-4.365-.2-8.663.11-17.326-.013-25.989.158a7.606,7.606,0,0,1-1.949-.242c-.506-.519-.211-1.162.105-1.676" transform="translate(-2172.492 -2557.818)" fill="#b6bbcd"/>
        <path id="Trazado_1050288" data-name="Trazado 1050288" d="M1252.55,2845.925c1-.708,1.641.418,1.606,1.315a48.2,48.2,0,0,0,4.857,17.115c3.845,8.25,9.983,15.214,16.917,21.021.022.172.07.515.1.687l-1.232.594c-10.5-8.359-18.527-20.076-21.431-33.266-.5-2.45-1.148-4.945-.814-7.466" transform="translate(-1130.005 -2567.477)" fill="#f9fcff"/>
        <path id="Trazado_1050289" data-name="Trazado 1050289" d="M1681.806,2854.626c1.6-.009,3.194.013,4.791.053-.9,3.867-2.332,7.585-3.278,11.443-1.5,6.124-3.647,12.064-5.187,18.179-1.544,5.843-3.625,11.541-4.941,17.445-.237.563-.215,1.646-1.087,1.566-5.882.145-11.769-.066-17.656.066-1.016.048-2.455-.031-2.767-1.223a70.745,70.745,0,0,1-.092-7.295c.088-2.6-.242-5.24.33-7.8.15-.326.312-.638.475-.946-.378-1.091-.744-2.178-1.113-3.26-.009-1.888.084-3.771.18-5.645l.026-.471c.818,1.791,1.747,3.85,3.7,4.646a24.761,24.761,0,0,0,5.02,1.214,4.919,4.919,0,0,0,5.39-2.965c.651-1.663.365-3.727,1.777-5.029l-.057.009a44.759,44.759,0,0,0,5.557-1.6q1.175-.468,2.363-.915c.792-1.421,2.019-2.78,1.945-4.5.048-1.676-1.047-3.027-1.707-4.479,1.707-.919,3.792-1.32,5.02-2.952a6.272,6.272,0,0,0,1.311-5.544" transform="translate(-1489.834 -2575.526)" fill="#4e59b3"/>
        <path id="Trazado_1050290" data-name="Trazado 1050290" d="M2203.756,2853.713c2.987-.017,5.979-.031,8.966.053a32.317,32.317,0,0,0-2.569,2.274c-.854.849-1.7,1.707-2.561,2.552a13.516,13.516,0,0,0-1.905-2.1,1.261,1.261,0,0,0-1.822,1.047,13.986,13.986,0,0,0,3.471,4.65c2.02-1.465,3.419-3.577,5.346-5.139-.651,1.8-1.069,3.665-1.61,5.5-3.282-.11-6.564-.031-9.842-.031.889-2.921,1.835-5.83,2.526-8.8" transform="translate(-1986.015 -2574.692)" fill="#fcfcfc"/>
        <path id="Trazado_1050291" data-name="Trazado 1050291" d="M2719,2854.024c1.148-.158,2.3-.312,3.458-.37-1.28,1.122-3.124,1.8-3.854,3.423a4.132,4.132,0,0,0,1.219,4.466c1.738,1.553,3.986,2.305,6.08,3.247,4.264,1.835,8.5,3.727,12.737,5.632a50.738,50.738,0,0,1,5.772,2.6.967.967,0,0,1,.057,1.579c-1.826-.172-3.361-1.293-5.029-1.945q-8.4-3.6-16.684-7.44a11.965,11.965,0,0,1-5.636-4.061,7.861,7.861,0,0,1-.462-3.74,7.613,7.613,0,0,1,2.341-3.4" transform="translate(-2450.999 -2574.651)" fill="#e08861"/>
        <path id="Trazado_1050292" data-name="Trazado 1050292" d="M2669.122,2853.58a24.492,24.492,0,0,1,4.567.365c5.253,1.813,10.577,3.41,15.826,5.227,2.218.7,4.373,1.588,6.533,2.455.467-1.615.99-3.216,1.452-4.831a18.069,18.069,0,0,0,1.324,2.935c.387.691.783,1.39,1.188,2.081.9,1.813,2.8,2.873,3.617,4.743a8.354,8.354,0,0,1,.7,3.929,13.7,13.7,0,0,1-1.17,4.624,14.569,14.569,0,0,1-3.172,3.088c.51,2.13,1.421,4.4.537,6.569-.713,2.24-2.939,3.344-4.831,4.435.04,2.094.422,4.387-.713,6.287-1,2.011-3.313,2.626-5.139,3.625-.009.369-.026,1.108-.035,1.478a8.077,8.077,0,0,1-4.228,6.151c-1.553.752-3.33.638-4.993.933-4.338-1.386-8.223-3.788-12.218-5.917a17.116,17.116,0,0,0-2.627-1.676l.88-.053c-1.778-1.733-4.039-3.454-4.374-6.089-.18-1.478.044-3.493,1.659-4.083a12.775,12.775,0,0,1,3.577,1.364c4.145,1.817,8.184,3.863,12.275,5.79a12.684,12.684,0,0,0,2.455.691c-.185-.66.079-1.637-.774-1.875-4.228-2.107-8.61-3.907-12.812-6.071-3.106-1.637-6.622-2.565-9.376-4.822-2.578-2.076-1.984-6.964,1.214-8.091a4.976,4.976,0,0,1,4.052.225c4.408,1.834,8.725,3.889,13.129,5.741a55.746,55.746,0,0,0,6.877,2.8c.141-.269.427-.805.568-1.073a24.368,24.368,0,0,0-5.464-2.776c-6.063-2.75-12.244-5.24-18.21-8.2-1.483-.813-3.1-1.773-3.766-3.41a4.568,4.568,0,0,1,2.3-5.3,32.8,32.8,0,0,0,3.577-1.636c1.953.668,3.823,1.646,5.9,1.927q8.289,3.834,16.684,7.44c1.667.651,3.2,1.773,5.029,1.944a.966.966,0,0,0-.057-1.579,50.736,50.736,0,0,0-5.772-2.6c-4.233-1.905-8.474-3.8-12.737-5.632-2.094-.941-4.343-1.694-6.08-3.247a4.131,4.131,0,0,1-1.219-4.465c.73-1.619,2.574-2.3,3.854-3.423" transform="translate(-2397.665 -2574.577)" fill="#f5bc9e"/>
        <path id="Trazado_1050293" data-name="Trazado 1050293" d="M2228.186,2879.139a1.26,1.26,0,0,1,1.821-1.047,13.526,13.526,0,0,1,1.905,2.1c.862-.845,1.707-1.7,2.561-2.552.233.233.691.7.919.933.8-.189,1.593-.378,2.385-.6-.193.167-.581.506-.774.677-1.927,1.562-3.326,3.674-5.345,5.139a13.984,13.984,0,0,1-3.471-4.65" transform="translate(-2010.335 -2596.291)" fill="#ca2b2a"/>
        <path id="Trazado_1050294" data-name="Trazado 1050294" d="M2422.05,2893.93c.119-.594.242-1.179.387-1.756a7.857,7.857,0,0,0,.462,3.74c-10.8-.1-21.607.211-32.4-.128q.073-.831.158-1.65a37.176,37.176,0,0,1,4.694-.264c8.9-.009,17.8-.066,26.7.057" transform="translate(-2156.78 -2609.405)" fill="#b6bdd3"/>
        <path id="Trazado_1050295" data-name="Trazado 1050295" d="M3080.26,2916.548a27.9,27.9,0,0,1,5.442.5c11.135,1.87,22.354,6.23,30.182,14.646,3.568,3.894,6.709,8.491,7.827,13.731-.585.075-1.166.127-1.747.167a30.98,30.98,0,0,1-1.866-4.056,32.692,32.692,0,0,0-6.322-9.059c-8.456-8.619-20.507-12.768-32.329-13.85-.4-.691-.8-1.39-1.188-2.081" transform="translate(-2779.102 -2631.395)" fill="#cf7816"/>
        <path id="Trazado_1050296" data-name="Trazado 1050296" d="M2640.279,2948.866a6.32,6.32,0,0,1,4.694-.141,32.758,32.758,0,0,1-3.577,1.637,4.567,4.567,0,0,0-2.3,5.3c.669,1.636,2.284,2.6,3.766,3.41,5.966,2.957,12.147,5.447,18.21,8.2a24.379,24.379,0,0,1,5.464,2.776c-.141.268-.427.805-.568,1.073a55.764,55.764,0,0,1-6.876-2.8c-4.4-1.853-8.72-3.907-13.129-5.742a4.979,4.979,0,0,0-4.052-.224c-3.2,1.126-3.792,6.014-1.214,8.091,2.754,2.257,6.27,3.185,9.376,4.822,4.2,2.165,8.584,3.964,12.812,6.072.854.238.59,1.214.774,1.874a12.684,12.684,0,0,1-2.455-.691c-4.092-1.927-8.131-3.973-12.275-5.79a12.771,12.771,0,0,0-3.577-1.364c-1.615.59-1.839,2.6-1.659,4.083.334,2.635,2.6,4.356,4.373,6.089l-.88.053c-2.728-1.192-5.416-3.449-5.768-6.578-.3-1.923.8-3.643,2.024-5.007-1.887-.994-3.96-1.918-5.24-3.709a6.705,6.705,0,0,1-.163-7.229,13.708,13.708,0,0,1,2.495-2.178c.3-.189.607-.378.92-.559a22.545,22.545,0,0,1-2.917-2.134,19.83,19.83,0,0,1-1.276-1.931,6.052,6.052,0,0,1,3.014-7.4" transform="translate(-2379.114 -2660.083)" fill="#e0845a"/>
        <path id="Trazado_1050297" data-name="Trazado 1050297" d="M2135.8,3019.838c1.06-3.942,1.975-7.928,3.2-11.822,4.439.048,8.883-.079,13.326.009-.92,4.008-2.05,7.968-3.181,11.919-4.448.136-8.909.141-13.349-.105m2.156-1.575c3.3-.066,6.591-.04,9.886-.07.761-2.829,1.509-5.658,2.323-8.469q-4.91.027-9.82.031c-.77,2.842-1.518,5.693-2.389,8.509" transform="translate(-1926.983 -2713.9)" fill="#4b5bab"/>
        <path id="Trazado_1050298" data-name="Trazado 1050298" d="M2962.237,3010.524c.576.048,1.157.1,1.738.163.066,4.056.977,8.113.317,12.165a46.864,46.864,0,0,1-3.01,13.617,29.136,29.136,0,0,1-12.807,14.889c-2.16,1.029-4.294,2.446-6.771,2.464-.009-.542,0-1.074,0-1.606a25.892,25.892,0,0,0,14.629-10.273,36.805,36.805,0,0,0,6.151-19.169c.607-4.069-.347-8.157-.246-12.249" transform="translate(-2654.087 -2716.184)" fill="#fbfcff"/>
        <path id="Trazado_1050299" data-name="Trazado 1050299" d="M2157.851,3034.229c.871-2.816,1.619-5.667,2.389-8.509q4.91-.007,9.82-.031c-.814,2.811-1.562,5.64-2.323,8.469-3.3.031-6.591,0-9.886.07" transform="translate(-1946.877 -2729.866)" fill="#fff"/>
        <path id="Trazado_1050300" data-name="Trazado 1050300" d="M2362.44,3028.733a43.547,43.547,0,0,1,5.521-.1c7.115,0,14.233-.031,21.352.031a19.724,19.724,0,0,0,1.276,1.931c-9.495.035-18.989.083-28.484.031a5.193,5.193,0,0,1,.334-1.9" transform="translate(-2131.162 -2732.487)" fill="#b7bccd"/>
        <path id="Trazado_1050301" data-name="Trazado 1050301" d="M3001.409,3031.168a13.7,13.7,0,0,0,1.17-4.624c.308,2.006.9,4.343-.55,6.08-.594,1.052-2.165,1.9-1.553,3.282a8.548,8.548,0,0,1-.972,7.462,17.062,17.062,0,0,1-3.643,2.913c-.154,2.6-.128,5.552-2.077,7.554-1.368,1.8-3.718,2.143-5.729,2.816.009-.369.026-1.109.035-1.478,1.826-1,4.14-1.615,5.139-3.625,1.135-1.9.752-4.193.713-6.287,1.892-1.091,4.118-2.2,4.831-4.435.885-2.169-.026-4.439-.537-6.569a14.581,14.581,0,0,0,3.172-3.089" transform="translate(-2695.912 -2730.637)" fill="#df8253"/>
        <path id="Trazado_1050302" data-name="Trazado 1050302" d="M1653.41,3060.907a83.993,83.993,0,0,0,15.821-1.909l.057-.009c-1.412,1.3-1.126,3.366-1.778,5.029a4.92,4.92,0,0,1-5.39,2.965,24.814,24.814,0,0,1-5.02-1.214c-1.953-.8-2.882-2.855-3.7-4.646Z" transform="translate(-1491.747 -2759.91)" fill="#252b4b"/>
        <path id="Trazado_1050303" data-name="Trazado 1050303" d="M1571.456,3071.61a8.938,8.938,0,0,1,3.9-1.461c.453.792.933,1.58,1.408,2.367.875,1.571,1.681,3.181,2.495,4.791.369,1.082.735,2.169,1.113,3.26-.163.308-.326.621-.475.946l-.581.136c.136-.185.4-.559.541-.744a88.041,88.041,0,0,1-8.4-9.3" transform="translate(-1417.814 -2769.979)" fill="#ce7c24"/>
        <path id="Trazado_1050304" data-name="Trazado 1050304" d="M1616.546,3075.864c1.135.044,2.279.093,3.414.22.04.18.123.55.163.735-.1,1.874-.189,3.757-.18,5.645-.814-1.61-1.619-3.22-2.495-4.791q-.462-.911-.9-1.808" transform="translate(-1458.496 -2775.135)" fill="#202b60"/>
        <path id="Trazado_1050305" data-name="Trazado 1050305" d="M2372.922,3076.928a28.472,28.472,0,0,0,6.591-.3,13.681,13.681,0,0,0-2.495,2.178c-9.8.26-19.6.1-29.4.149.114-.642-.207-1.689.664-1.9a26.521,26.521,0,0,1,4.382-.124c6.753.018,13.507-.057,20.26,0" transform="translate(-2118.088 -2775.825)" fill="#b6bad3"/>
        <path id="Trazado_1050306" data-name="Trazado 1050306" d="M1506.389,3146.509c.827-1.271,2.5-.739,3.762-.734.959,1.148,1.967,2.9.761,4.25-.937,1.663-3.168,1.254-4.558.453-.673-1.206-1.06-2.877.035-3.969" transform="translate(-1358.488 -2838.108)" fill="#fefdfc"/>
        <path id="Trazado_1050307" data-name="Trazado 1050307" d="M1294.127,3217.117c5.143-3.925,10.546-7.493,15.746-11.338.678,4.294.115,8.645.4,12.961a3.921,3.921,0,0,0,2.776,3.582,15.5,15.5,0,0,0,3.194.211q8.276-.1,16.556-.026c.154,1.7,1.293,3.608,3.247,3.414q38.271.006,76.541,0c6.371-.071,12.75.163,19.108-.154a57.476,57.476,0,0,0,.11,6.155c.392,11.646.827,23.292,1.065,34.942q-78.712-.046-157.429,0c.167-12.53.6-25.061.968-37.586,5.909-3.946,11.646-8.157,17.572-12.064l.075-.044Z" transform="translate(-1150.745 -2892.349)" fill="#4e59b3"/>
        <path id="Trazado_1050308" data-name="Trazado 1050308" d="M1465.076,3321.845c.035-.026.106-.079.141-.1l-.066.057Z" transform="translate(-1321.835 -2996.976)" fill="#ae6e00"/>
        <path id="Trazado_1050309" data-name="Trazado 1050309" d="M141.645,3830.5c9.112-.053,18.228.009,27.344-.009q41.306-.02,82.613-.018,78.712.026,157.429,0c26.187.04,52.374,0,78.561.022,12.662.009,25.324-.035,37.987,0,.594-.017,1.2.242,1.25.924.383.977-.818,1.65-1.659,1.474q-191.616-.046-383.229-.013c-1.518.325-1.791-2.332-.295-2.371" transform="translate(-126.901 -3455.952)" fill="#141415"/>
      </g>
    </g>
  </g>
</svg>
